<svg version="1.1" id="Layer_1" xmlns="http://www.w3.org/2000/svg" xmlns:xlink="http://www.w3.org/1999/xlink" x="0px" y="0px"
	 width="100%" viewBox="0 0 2560 2560" enable-background="new 0 0 2560 2560" xml:space="preserve">
<path fill="#000000" opacity="1.000000" stroke="none" 
	d="
M2562.000000,864.000000 
	C2562.000000,1430.666626 2562.000000,1996.333130 2562.000000,2562.000000 
	C1708.666870,2562.000000 855.333862,2562.000000 2.000571,2562.000000 
	C2.000381,1708.667114 2.000381,855.334167 2.000190,2.000915 
	C855.332764,2.000610 1708.665527,2.000610 2561.999023,2.000305 
	C2562.000000,289.000000 2562.000000,576.000000 2562.000000,864.000000 
M375.873718,2113.281738 
	C376.596039,2114.052979 377.318329,2114.823975 379.795441,2116.285889 
	C415.379272,2116.285889 450.963135,2116.285889 486.530853,2116.285889 
	C487.290100,2118.314941 488.082764,2119.514893 488.148926,2120.753906 
	C488.725189,2131.544434 489.576477,2142.341309 489.591492,2153.137207 
	C489.704620,2234.457520 489.635742,2315.778076 489.672791,2397.098389 
	C489.674438,2400.719727 490.150604,2404.340820 490.906647,2409.423340 
	C493.869659,2424.423340 499.761261,2438.154297 508.678619,2450.588135 
	C511.863403,2455.028809 515.404297,2459.292480 517.979492,2464.069824 
	C520.720032,2469.154297 524.485840,2472.129639 530.044861,2472.980469 
	C530.044861,2472.980469 530.012695,2472.941406 530.128418,2474.316162 
	C530.751160,2474.868896 531.373962,2475.421631 532.927368,2476.981201 
	C533.904541,2478.292969 534.682983,2479.833984 535.889771,2480.881104 
	C547.046570,2490.562012 559.701416,2497.557129 573.872253,2501.791992 
	C578.170044,2503.076416 582.384460,2505.357666 586.731750,2505.621338 
	C598.638123,2506.343750 610.596619,2506.457764 622.531128,2506.368896 
	C629.106384,2506.320068 636.160767,2506.718262 642.142456,2504.550537 
	C653.537170,2500.420898 664.711365,2495.285645 675.238892,2489.274902 
	C685.076599,2483.657959 695.423401,2478.237793 703.599304,2468.087402 
	C707.147583,2465.410400 710.795776,2462.854736 714.222656,2460.030273 
	C720.752869,2454.648193 727.227478,2449.193848 733.594910,2443.620850 
	C741.592407,2436.621338 749.267029,2429.240967 757.433044,2422.448730 
	C766.611816,2414.814209 776.291321,2407.782959 785.515503,2400.200684 
	C788.156067,2398.030273 789.973206,2394.857910 791.992188,2392.016602 
	C791.992188,2392.016602 792.151306,2392.167969 793.570251,2392.119629 
	C796.933960,2389.623535 800.407288,2387.260010 803.629211,2384.592529 
	C806.630737,2382.107666 809.218689,2379.119141 812.244385,2376.668213 
	C820.041260,2370.352783 828.036011,2364.281738 835.833069,2357.966309 
	C838.841431,2355.530029 841.144592,2352.000000 844.439148,2350.183594 
	C852.566406,2345.703125 858.962097,2339.597900 864.010559,2332.010986 
	C864.010559,2332.010986 864.071106,2332.129639 865.510620,2332.347900 
	C868.009888,2330.823486 870.702698,2329.542236 872.974060,2327.731934 
	C881.758545,2320.731201 890.659729,2313.842041 899.020142,2306.355957 
	C904.511841,2301.438477 909.150879,2295.569092 913.998047,2290.038818 
	C913.998047,2290.038818 914.127930,2290.183838 915.578918,2290.433838 
	C916.210449,2290.316162 917.020996,2290.410400 917.447510,2290.050049 
	C932.317322,2277.492676 947.123718,2264.860107 962.019653,2252.333984 
	C964.201721,2250.499023 967.238403,2249.546875 969.088684,2247.478516 
	C972.949585,2243.162598 979.138672,2240.812988 980.263794,2234.245850 
	C980.263794,2234.245850 980.286072,2234.476807 981.649353,2235.274414 
	C989.020386,2230.842529 996.563843,2226.596924 1000.015076,2218.036865 
	C1000.015076,2218.036865 1000.105347,2218.184082 1001.590576,2218.436035 
	C1002.577148,2218.345215 1003.856689,2218.622559 1004.504578,2218.106445 
	C1010.405090,2213.407227 1016.403259,2208.796143 1021.945984,2203.695068 
	C1025.706421,2200.234375 1028.782104,2196.029541 1031.988281,2192.042236 
	C1031.988281,2192.042236 1032.156738,2192.178711 1033.598877,2192.434814 
	C1045.325073,2182.416260 1057.051270,2172.397461 1070.150146,2162.430664 
	C1073.535400,2159.107422 1076.920654,2155.784424 1080.234619,2152.304443 
	C1080.234619,2152.304443 1080.400635,2152.350342 1081.744873,2152.682129 
	C1081.923462,2151.857178 1082.102051,2151.032227 1081.988525,2150.107178 
	C1081.988525,2150.107178 1082.256592,2150.261230 1083.704712,2150.575439 
	C1087.500000,2147.757080 1091.443359,2145.115479 1095.060547,2142.084473 
	C1103.243286,2135.228027 1111.059814,2127.917969 1119.457642,2121.344482 
	C1122.623901,2118.865723 1127.078003,2118.093262 1130.754272,2116.177002 
	C1132.328735,2115.356445 1133.415771,2113.600586 1136.323853,2112.485107 
	C1140.624878,2112.423584 1144.925903,2112.362061 1149.900879,2113.863281 
	C1153.602783,2114.695312 1157.300781,2116.230469 1161.006958,2116.250244 
	C1195.654541,2116.434814 1230.304077,2116.247070 1264.951172,2116.478027 
	C1270.292358,2116.513428 1276.258911,2114.195801 1281.015869,2119.010254 
	C1281.423706,2119.423096 1283.117310,2119.224609 1283.682251,2118.717773 
	C1287.993774,2114.850342 1293.189941,2116.421631 1297.999634,2116.420410 
	C1586.515137,2116.352539 1875.030640,2116.359619 2163.546143,2116.359619 
	C2172.541504,2116.359619 2181.536865,2116.402100 2190.531738,2116.329834 
	C2192.834717,2116.311523 2196.135498,2116.817139 2197.254150,2115.554688 
	C2201.043945,2111.277100 2205.745850,2112.861816 2210.192139,2112.297363 
	C2218.201172,2111.280762 2226.634521,2112.500488 2235.751221,2107.927002 
	C2244.164795,2109.117188 2251.390625,2104.129150 2259.454590,2103.349365 
	C2262.974609,2103.008789 2266.498535,2102.037598 2269.864014,2100.892334 
	C2283.283203,2096.324951 2296.756836,2091.874023 2309.957520,2086.731934 
	C2314.501709,2084.961914 2320.239258,2083.998291 2322.068359,2078.074219 
	C2322.068359,2078.074219 2322.083984,2078.249512 2323.686035,2078.559082 
	C2327.145264,2077.677246 2330.950195,2077.438965 2334.002686,2075.799805 
	C2346.083740,2069.312744 2358.681641,2063.416504 2369.680420,2055.376221 
	C2385.156494,2044.062988 2401.385010,2033.558105 2414.812012,2019.559326 
	C2418.780273,2015.421997 2423.790039,2012.298828 2427.908691,2008.286377 
	C2433.195801,2003.136108 2438.109619,1997.598389 2443.102539,1992.152466 
	C2448.846924,1985.886841 2454.854736,1979.817261 2460.104980,1973.155396 
	C2466.301270,1965.293579 2472.104492,1957.076904 2477.477295,1948.631958 
	C2479.817871,1944.953369 2480.662598,1940.322876 2482.029297,1935.995361 
	C2482.029297,1935.995361 2482.142090,1936.164429 2483.585693,1935.966064 
	C2485.460693,1931.181396 2491.695557,1928.471191 2490.029053,1922.031372 
	C2490.029053,1922.031372 2490.127930,1922.170410 2491.600098,1922.078247 
	C2492.506836,1921.262329 2493.753418,1920.618652 2494.268311,1919.604004 
	C2499.856934,1908.586304 2505.914795,1897.751587 2510.620361,1886.361328 
	C2513.513184,1879.359009 2514.291260,1871.483154 2516.362793,1863.055664 
	C2516.303467,1862.726196 2516.244385,1862.396606 2516.031494,1862.023071 
	C2516.031494,1862.023071 2516.112061,1862.160889 2517.628662,1861.985107 
	C2519.760498,1856.488159 2522.306152,1851.110596 2523.933838,1845.468262 
	C2526.852783,1835.348389 2529.278076,1825.083496 2531.753174,1814.841431 
	C2532.122559,1813.312256 2531.641602,1811.577515 2531.932373,1808.273560 
	C2535.365479,1796.322144 2533.868408,1784.169922 2533.760254,1771.168457 
	C2533.760254,1771.168457 2533.834473,1770.212524 2535.384521,1769.512817 
	C2536.209473,1762.332764 2537.747070,1755.153442 2537.753906,1747.972534 
	C2537.893555,1600.345581 2537.827637,1452.718506 2537.947510,1305.091553 
	C2537.953857,1297.301392 2536.019775,1289.194580 2540.306152,1281.725830 
	C2540.874268,1280.735840 2540.877930,1278.738770 2540.243164,1277.852905 
	C2536.348633,1272.416870 2537.923828,1266.287231 2537.921875,1260.466187 
	C2537.847656,1035.193237 2537.859131,809.920288 2537.858643,584.647339 
	C2537.858643,581.981384 2538.484375,579.114624 2537.713623,576.692993 
	C2536.284180,572.201233 2538.632812,566.622498 2534.113525,562.621704 
	C2534.113525,562.621704 2533.679443,562.291870 2533.750000,560.339905 
	C2533.826904,546.209900 2535.122070,532.016113 2531.798340,516.474487 
	C2530.698975,512.450623 2529.117676,508.488739 2528.591309,504.391296 
	C2527.061279,492.486511 2524.699707,480.858765 2519.745361,468.497131 
	C2517.963379,462.957245 2516.361328,457.351379 2514.357666,451.892883 
	C2511.357910,443.721863 2508.670410,435.357361 2504.794678,427.602600 
	C2495.859375,409.723450 2485.931885,392.497864 2474.623047,375.842041 
	C2465.496826,362.400909 2455.931641,349.441650 2445.339600,337.309021 
	C2434.636719,325.049652 2423.020264,313.716797 2410.258789,303.254364 
	C2399.676270,294.578217 2389.012451,286.117157 2378.061035,277.893463 
	C2365.504883,268.464539 2351.947998,260.894012 2338.117676,253.720093 
	C2334.433838,251.809204 2330.135010,251.083679 2326.005127,249.980469 
	C2326.005127,249.980469 2326.163330,249.855682 2325.989502,248.434784 
	C2320.649414,244.323029 2314.957764,241.015411 2306.592529,240.071701 
	C2297.843994,236.102509 2289.438965,230.617294 2280.262207,228.537506 
	C2268.050537,225.769897 2256.660400,219.419159 2243.730469,219.809113 
	C2238.487061,215.040588 2231.954590,216.403961 2225.781250,216.013046 
	C2216.626709,215.433365 2207.467285,214.896194 2198.328613,214.120804 
	C2196.175537,213.938110 2194.096680,212.876968 2190.169922,211.721497 
	C2186.172119,211.704941 2182.174072,211.673935 2178.176270,211.673904 
	C1887.985840,211.671646 1597.795288,211.677673 1307.604858,211.627548 
	C1302.105103,211.626602 1296.582031,212.560349 1291.272705,209.000336 
	C1288.993408,207.472092 1283.786133,207.384811 1281.767334,208.985840 
	C1277.163208,212.637512 1272.333130,211.616196 1267.549805,211.617188 
	C975.027100,211.678085 682.504395,211.669800 389.981689,211.693207 
	C386.003601,211.693527 382.025543,212.015045 376.379669,212.575806 
	C369.655640,213.099579 362.863831,213.194748 356.222931,214.244492 
	C345.437042,215.949463 333.953156,214.290131 322.429169,220.241531 
	C317.536865,218.894180 313.882233,222.686447 309.609009,223.375397 
	C292.833862,226.080032 277.562256,233.085922 262.007996,239.267349 
	C253.052917,242.826172 244.092896,246.324692 235.776428,251.472183 
	C227.950806,256.315857 219.023575,259.393066 211.253891,264.310638 
	C200.063934,271.392914 189.291077,279.182159 178.698471,287.146149 
	C169.082703,294.375702 159.499603,301.761505 150.696091,309.933746 
	C135.033066,324.473633 121.153275,340.669189 108.061569,357.606873 
	C96.426132,372.660461 86.141273,388.451477 76.720421,406.541504 
	C76.488342,407.511566 76.492188,408.629822 75.989548,409.429901 
	C64.523758,427.680939 56.949120,447.652740 50.531006,468.058350 
	C48.086292,475.830933 44.943336,483.726898 43.914661,491.558990 
	C42.358818,503.404907 39.069771,514.889709 37.443607,526.729187 
	C36.178219,535.942017 35.656612,544.871582 35.650738,555.856628 
	C35.643101,793.181396 35.636059,1030.506226 35.622772,1267.830933 
	C35.622551,1271.829712 35.546684,1275.828491 34.390892,1280.307861 
	C34.632629,1283.636108 34.874371,1286.964478 35.471260,1292.098633 
	C35.523228,1295.096313 35.620541,1298.093994 35.620651,1301.091675 
	C35.626308,1452.399414 35.621098,1603.707275 35.637142,1755.015015 
	C35.637531,1758.670532 35.864868,1762.326172 35.557034,1767.508911 
	C35.529774,1773.698608 35.233665,1779.904297 35.599838,1786.070557 
	C35.759319,1788.756348 37.277931,1791.361572 38.061764,1795.749512 
	C38.051125,1799.718140 37.607288,1803.752441 38.194633,1807.630615 
	C38.538933,1809.903931 40.525932,1811.928467 41.569210,1815.803467 
	C41.544308,1817.768188 40.961754,1819.937866 41.594925,1821.660767 
	C43.842613,1827.776489 40.867577,1835.701904 47.974380,1840.014771 
	C47.974380,1840.014771 47.835934,1839.988159 47.587952,1841.700684 
	C49.333878,1849.677979 50.996784,1857.675659 52.930870,1865.607056 
	C53.172783,1866.599121 54.848125,1867.241577 55.572926,1869.679321 
	C59.064434,1879.628174 61.979572,1889.830322 66.207336,1899.455811 
	C70.555298,1909.355103 76.679825,1918.467163 81.145180,1928.323364 
	C89.512817,1946.792725 102.216248,1962.336182 114.096581,1978.411865 
	C117.631783,1983.195801 121.505341,1988.386719 127.968758,1990.026245 
	C127.968758,1990.026245 127.822174,1990.099854 127.687080,1991.554321 
	C134.714554,2002.956177 142.817902,2013.217163 155.967133,2018.032593 
	C155.967133,2018.032593 155.821136,2018.073608 155.911011,2019.493286 
	C160.110046,2023.786377 164.136093,2028.271240 168.587128,2032.285034 
	C170.567932,2034.071289 173.405075,2034.907959 175.964035,2035.995117 
	C175.964035,2035.995117 175.835419,2036.172729 175.797409,2037.584351 
	C185.833740,2044.644653 195.857910,2051.722412 205.909470,2058.760986 
	C217.903961,2067.159668 231.091568,2073.277344 244.088013,2079.924072 
	C255.740906,2085.883789 267.646973,2090.633789 279.857208,2094.898193 
	C288.613281,2097.956299 297.521698,2100.599854 306.431946,2103.188232 
	C314.156128,2105.432129 321.579102,2109.347900 330.063385,2107.890137 
	C330.671143,2107.785645 331.419769,2107.993652 331.993958,2108.276855 
	C341.564240,2113.000977 351.783966,2112.502686 363.722992,2112.401855 
	C367.828918,2112.324707 371.934814,2112.247314 375.972504,2112.031250 
	C375.972504,2112.031250 375.839355,2112.109863 375.873718,2113.281738 
z"/>
<path fill="#677DFF" opacity="1.000000" stroke="none" 
	d="
M2533.834473,1770.212524 
	C2533.834473,1770.212524 2533.760254,1771.168457 2533.209717,1772.294678 
	C2531.238770,1784.318481 2529.818359,1795.215942 2528.233887,1806.903564 
	C2524.325928,1823.287598 2520.535645,1838.870483 2516.885254,1854.486084 
	C2516.304688,1856.968872 2516.354004,1859.598999 2516.111816,1862.160889 
	C2516.112061,1862.160889 2516.031494,1862.023071 2515.557129,1862.064697 
	C2514.751465,1862.732788 2514.420410,1863.359253 2513.767090,1864.635864 
	C2506.340820,1881.488037 2499.177246,1897.664551 2492.193848,1913.918457 
	C2491.088867,1916.490234 2490.796143,1919.411011 2490.127930,1922.170410 
	C2490.127930,1922.170410 2490.029053,1922.031372 2489.384033,1922.031738 
	C2485.386230,1926.204224 2481.158203,1929.967896 2482.142090,1936.164429 
	C2482.142090,1936.164429 2482.029297,1935.995361 2481.414307,1935.858643 
	C2478.747803,1938.288208 2476.649658,1940.818848 2474.652832,1943.426758 
	C2462.945068,1958.717285 2452.151123,1974.816772 2439.393066,1989.171997 
	C2408.360107,2024.090088 2371.592041,2051.805176 2329.634033,2072.544434 
	C2326.855957,2073.917725 2324.588867,2076.323730 2322.083984,2078.249512 
	C2322.083984,2078.249512 2322.068359,2078.074219 2321.382080,2077.918945 
	C2319.118164,2078.221191 2317.509033,2078.592529 2315.967285,2079.149658 
	C2300.403809,2084.774414 2284.974609,2090.805664 2269.255127,2095.951416 
	C2257.687988,2099.738037 2245.745850,2102.378418 2233.101562,2105.552979 
	C2193.997070,2112.449707 2155.373291,2111.977783 2116.741699,2111.968262 
	C1799.559937,2111.889160 1482.378174,2111.920898 1165.196411,2111.937988 
	C1159.873291,2111.938477 1154.550049,2112.174561 1149.226929,2112.300537 
	C1144.925903,2112.362061 1140.624878,2112.423584 1134.669678,2112.224609 
	C1128.319702,2111.565430 1124.054565,2111.734375 1120.036011,2115.232666 
	C1108.774658,2125.035645 1097.077026,2134.336182 1085.743164,2144.058105 
	C1084.051880,2145.509033 1083.393066,2148.163574 1082.256592,2150.261230 
	C1082.256592,2150.261230 1081.988525,2150.107178 1081.411743,2150.013672 
	C1080.690186,2150.730469 1080.545410,2151.540283 1080.400635,2152.350342 
	C1080.400635,2152.350342 1080.234619,2152.304443 1079.656250,2151.907715 
	C1074.623291,2154.968018 1070.168945,2158.424561 1065.059814,2162.030518 
	C1054.755737,2170.095703 1045.021240,2177.911865 1035.536987,2186.020752 
	C1033.872192,2187.444092 1033.256836,2190.094971 1032.156738,2192.178711 
	C1032.156738,2192.178711 1031.988281,2192.042236 1031.383545,2191.796875 
	C1029.284546,2192.201904 1027.541992,2192.552734 1026.336182,2193.551514 
	C1017.914978,2200.527344 1009.570679,2207.598145 1001.313660,2214.767334 
	C1000.520142,2215.456299 1000.489990,2217.024170 1000.105347,2218.184082 
	C1000.105347,2218.184082 1000.015076,2218.036865 999.383057,2217.960693 
	C991.897034,2222.637451 984.198181,2226.450195 980.286072,2234.476807 
	C980.286072,2234.476807 980.263794,2234.245850 979.661011,2234.115723 
	C978.173645,2234.408447 977.154907,2234.669922 976.423889,2235.277344 
	C956.389038,2251.924805 936.356689,2268.575439 916.437561,2285.360352 
	C915.195068,2286.407227 914.876465,2288.550537 914.127930,2290.183838 
	C914.127930,2290.183838 913.998047,2290.038818 913.376343,2289.906738 
	C911.845642,2290.162109 910.782471,2290.362305 910.050293,2290.964844 
	C895.416077,2303.001953 880.781555,2315.040283 866.285034,2327.242188 
	C865.050354,2328.281250 864.786133,2330.473145 864.071106,2332.129639 
	C864.071106,2332.129639 864.010559,2332.010986 863.350708,2332.016113 
	C860.407776,2333.249512 857.844360,2334.138672 855.885010,2335.758545 
	C835.752563,2352.401123 815.677307,2369.114258 795.728271,2385.975830 
	C794.015137,2387.423828 793.319519,2390.075439 792.151306,2392.167969 
	C792.151306,2392.167969 791.992188,2392.016602 791.377930,2391.842285 
	C787.740112,2393.652832 784.516418,2395.392822 781.728394,2397.666504 
	C770.651428,2406.700439 759.639282,2415.817383 748.735840,2425.060059 
	C733.026611,2438.376709 717.432861,2451.829834 701.144043,2465.495605 
	C689.336365,2473.473145 678.915222,2482.682861 666.878906,2488.616211 
	C624.191956,2509.659912 582.483398,2507.720215 542.760986,2480.260986 
	C539.264771,2477.843994 535.562500,2475.725342 531.477661,2473.308105 
	C530.670593,2473.079346 530.341614,2473.010498 530.012695,2472.941406 
	C530.012695,2472.941406 530.044861,2472.980469 530.133301,2472.243164 
	C528.483887,2469.167725 526.972595,2466.612549 524.970825,2464.528320 
	C513.391968,2452.471191 505.050354,2438.459717 499.408325,2422.791748 
	C497.642059,2417.886963 496.040802,2412.922852 494.331482,2407.100586 
	C493.606873,2391.593994 492.352905,2376.974121 492.316467,2362.351074 
	C492.118774,2283.018555 492.227692,2203.685059 492.203522,2124.352051 
	C492.202332,2120.481934 491.942261,2116.611816 491.768219,2111.784424 
	C453.132843,2111.784424 415.537231,2111.784424 377.402679,2111.779297 
	C376.522247,2111.886230 376.180786,2111.998047 375.839355,2112.109863 
	C375.839355,2112.109863 375.972504,2112.031250 375.528259,2111.461182 
	C370.718506,2110.547607 366.353058,2110.204102 361.236420,2109.730469 
	C356.978058,2109.128906 353.470917,2108.657227 349.476837,2108.064209 
	C348.655701,2107.956787 348.321442,2107.970459 347.208557,2107.819824 
	C326.800720,2102.743896 306.880524,2098.761475 287.604126,2092.723633 
	C250.200378,2081.007568 216.066422,2062.548096 184.367935,2039.514893 
	C181.976746,2037.777344 178.700333,2037.258179 175.835434,2036.172607 
	C175.835419,2036.172729 175.964035,2035.995117 176.141006,2035.396729 
	C170.487961,2027.995239 164.283508,2021.650879 155.821136,2018.073608 
	C155.821136,2018.073608 155.967133,2018.032593 156.003571,2017.413574 
	C147.819244,2008.250854 139.632248,1999.673950 131.321106,1991.219238 
	C130.561432,1990.446411 129.007324,1990.454468 127.822166,1990.099854 
	C127.822174,1990.099854 127.968758,1990.026245 128.000504,1989.394043 
	C120.592522,1979.014282 112.968102,1969.401367 105.748108,1959.493774 
	C85.252594,1931.368408 69.838013,1900.545288 57.678017,1867.258545 
	C54.364140,1857.672363 51.100037,1848.830200 47.835930,1839.988159 
	C47.835934,1839.988159 47.974380,1840.014771 48.090248,1839.233643 
	C46.691574,1830.284790 45.177029,1822.117310 43.735046,1813.163086 
	C42.536972,1806.253662 41.266338,1800.130981 40.056458,1793.117676 
	C39.386017,1783.501953 38.654823,1774.777100 37.994827,1765.113770 
	C38.040852,1610.435913 38.017864,1456.696289 37.979347,1302.956665 
	C37.978264,1298.634399 37.811508,1294.312134 37.837791,1289.163818 
	C37.876366,1285.562622 37.799152,1282.787598 37.822678,1279.082764 
	C37.946003,1273.824585 37.988304,1269.496338 37.988361,1265.167969 
	C37.991547,1034.087402 37.991783,803.006775 37.987686,571.926208 
	C37.987583,565.934021 37.935947,559.941833 38.021782,553.103394 
	C38.697605,547.655090 39.338432,543.061035 39.809616,538.449707 
	C42.791737,509.264343 49.483826,480.924011 60.175968,453.643738 
	C66.216576,438.231537 73.411491,423.271729 80.552170,407.612915 
	C104.619232,364.780853 134.799149,327.968170 172.638641,297.507050 
	C218.009430,260.983185 269.152557,236.506653 326.670288,223.561462 
	C344.378784,220.853561 361.291626,218.128998 379.046234,215.491119 
	C399.852051,215.138977 419.816315,214.307907 439.780151,214.318344 
	C1023.781860,214.623688 1607.783447,215.012894 2192.647461,215.567474 
	C2205.954346,217.549271 2218.429932,219.162659 2230.837158,221.194382 
	C2257.467529,225.555298 2282.875732,234.187103 2308.634766,244.097702 
	C2314.849121,246.411606 2319.436035,251.481949 2326.163330,249.855682 
	C2326.163330,249.855682 2326.005127,249.980469 2325.864014,250.601120 
	C2327.332764,252.325470 2328.847168,253.613937 2330.566895,254.505722 
	C2370.252686,275.083618 2405.663330,301.247375 2435.992188,334.247681 
	C2456.385254,356.436737 2473.970459,380.577667 2488.564697,406.923401 
	C2499.734375,427.087555 2508.321777,448.377960 2516.161377,470.781433 
	C2520.229492,488.361633 2524.251953,505.175903 2528.198486,522.832092 
	C2528.826172,530.167603 2529.354004,536.686523 2530.283203,543.147644 
	C2531.205078,549.559265 2532.530762,555.912842 2533.679443,562.291870 
	C2533.679443,562.291870 2534.113525,562.621704 2533.753418,563.846924 
	C2533.500000,572.063354 2533.699219,579.054565 2533.699463,586.045715 
	C2533.714111,971.782043 2533.711426,1357.518433 2533.717041,1743.254761 
	C2533.717285,1752.240723 2533.793701,1761.226562 2533.834473,1770.212524 
M646.961914,2341.979004 
	C691.786072,2304.688232 736.577942,2267.358643 781.441162,2230.114746 
	C877.321960,2150.517578 973.306396,2071.044922 1068.998901,1991.222046 
	C1075.677612,1985.651001 1082.120728,1983.577515 1090.544189,1983.581055 
	C1445.191528,1983.731445 1799.838989,1983.755371 2154.486328,1983.562744 
	C2170.403076,1983.554077 2186.448730,1982.302979 2202.210693,1980.058594 
	C2251.145752,1973.090454 2293.839844,1952.196167 2329.824463,1918.576050 
	C2380.787354,1870.961914 2405.425781,1811.485962 2405.450195,1741.979492 
	C2405.584717,1356.667114 2405.567139,971.354797 2405.490723,586.042480 
	C2405.488525,574.739380 2405.015869,563.332642 2403.479736,552.150391 
	C2393.201416,477.330719 2356.123779,419.486328 2292.236572,379.167389 
	C2250.096680,352.572968 2203.398682,342.616486 2154.098145,342.618622 
	C1574.796387,342.643890 995.494507,342.606812 416.192749,342.741638 
	C393.899475,342.746826 371.650452,344.292114 349.810303,349.802887 
	C280.520844,367.286316 227.961746,406.731079 193.449081,469.364502 
	C174.622787,503.530396 165.814667,540.440125 165.825256,579.606384 
	C165.929993,966.918640 165.886551,1354.230835 165.890213,1741.543091 
	C165.890259,1745.875977 165.731400,1750.225220 166.041107,1754.538452 
	C166.732300,1764.165161 166.839066,1773.933228 168.641647,1783.365234 
	C186.282501,1875.671265 239.829956,1937.702148 327.738373,1970.059937 
	C354.864410,1980.044434 383.319519,1983.485352 412.151337,1983.514648 
	C478.480988,1983.582275 544.810791,1983.530029 611.140503,1983.558960 
	C615.009583,1983.560669 618.878540,1983.852051 621.888855,1983.973877 
	C622.851746,1985.340210 623.095764,1985.589111 623.218445,1985.887695 
	C623.341980,1986.188477 623.361328,1986.536987 623.397217,1986.867798 
	C623.468872,1987.529053 623.572815,1988.192261 623.573120,1988.854736 
	C623.618286,2110.514648 623.655579,2232.174561 623.694824,2353.834473 
	C623.695007,2354.500732 623.685547,2355.170166 623.742615,2355.832764 
	C623.799316,2356.491211 623.894714,2357.152588 624.053772,2357.792969 
	C624.119812,2358.059082 624.353210,2358.333984 624.586304,2358.495361 
	C624.851562,2358.678711 625.201599,2358.739746 626.107605,2359.070312 
	C632.531799,2353.819336 639.209656,2348.361084 646.961914,2341.979004 
z"/>
<path fill="#D6D7DF" opacity="1.000000" stroke="none" 
	d="
M2534.609375,1769.862671 
	C2533.793701,1761.226562 2533.717285,1752.240723 2533.717041,1743.254761 
	C2533.711426,1357.518433 2533.714111,971.782043 2533.699463,586.045715 
	C2533.699219,579.054565 2533.500000,572.063354 2533.638184,564.094055 
	C2538.632812,566.622498 2536.284180,572.201233 2537.713623,576.692993 
	C2538.484375,579.114624 2537.858643,581.981384 2537.858643,584.647339 
	C2537.859131,809.920288 2537.847656,1035.193237 2537.921875,1260.466187 
	C2537.923828,1266.287231 2536.348633,1272.416870 2540.243164,1277.852905 
	C2540.877930,1278.738770 2540.874268,1280.735840 2540.306152,1281.725830 
	C2536.019775,1289.194580 2537.953857,1297.301392 2537.947510,1305.091553 
	C2537.827637,1452.718506 2537.893555,1600.345581 2537.753906,1747.972534 
	C2537.747070,1755.153442 2536.209473,1762.332764 2534.609375,1769.862671 
z"/>
<path fill="#F5F6FE" opacity="1.000000" stroke="none" 
	d="
M1149.563965,2113.082031 
	C1154.550049,2112.174561 1159.873291,2111.938477 1165.196411,2111.937988 
	C1482.378174,2111.920898 1799.559937,2111.889160 2116.741699,2111.968262 
	C2155.373291,2111.977783 2193.997070,2112.449707 2233.101807,2106.184082 
	C2233.991943,2107.210693 2234.012939,2107.629639 2234.033936,2108.048584 
	C2226.634521,2112.500488 2218.201172,2111.280762 2210.192139,2112.297363 
	C2205.745850,2112.861816 2201.043945,2111.277100 2197.254150,2115.554688 
	C2196.135498,2116.817139 2192.834717,2116.311523 2190.531738,2116.329834 
	C2181.536865,2116.402100 2172.541504,2116.359619 2163.546143,2116.359619 
	C1875.030640,2116.359619 1586.515137,2116.352539 1297.999634,2116.420410 
	C1293.189941,2116.421631 1287.993774,2114.850342 1283.682251,2118.717773 
	C1283.117310,2119.224609 1281.423706,2119.423096 1281.015869,2119.010254 
	C1276.258911,2114.195801 1270.292358,2116.513428 1264.951172,2116.478027 
	C1230.304077,2116.247070 1195.654541,2116.434814 1161.006958,2116.250244 
	C1157.300781,2116.230469 1153.602783,2114.695312 1149.563965,2113.082031 
z"/>
<path fill="#FFFFFF" opacity="1.000000" stroke="none" 
	d="
M2191.785156,215.388687 
	C1607.783447,215.012894 1023.781860,214.623688 439.780151,214.318344 
	C419.816315,214.307907 399.852051,215.138977 379.013824,214.956238 
	C378.108948,213.618668 378.078217,212.902649 378.047485,212.186646 
	C382.025543,212.015045 386.003601,211.693527 389.981689,211.693207 
	C682.504395,211.669800 975.027100,211.678085 1267.549805,211.617188 
	C1272.333130,211.616196 1277.163208,212.637512 1281.767334,208.985840 
	C1283.786133,207.384811 1288.993408,207.472092 1291.272705,209.000336 
	C1296.582031,212.560349 1302.105103,211.626602 1307.604858,211.627548 
	C1597.795288,211.677673 1887.985840,211.671646 2178.176270,211.673904 
	C2182.174072,211.673935 2186.172119,211.704941 2191.026367,212.498199 
	C2191.850098,213.979507 2191.817627,214.684097 2191.785156,215.388687 
z"/>
<path fill="#E0E2EF" opacity="1.000000" stroke="none" 
	d="
M325.874695,223.544785 
	C269.152557,236.506653 218.009430,260.983185 172.638641,297.507050 
	C134.799149,327.968170 104.619232,364.780853 80.036819,407.305847 
	C78.620148,406.829376 78.184532,406.164764 77.748917,405.500183 
	C86.141273,388.451477 96.426132,372.660461 108.061569,357.606873 
	C121.153275,340.669189 135.033066,324.473633 150.696091,309.933746 
	C159.499603,301.761505 169.082703,294.375702 178.698471,287.146149 
	C189.291077,279.182159 200.063934,271.392914 211.253891,264.310638 
	C219.023575,259.393066 227.950806,256.315857 235.776428,251.472183 
	C244.092896,246.324692 253.052917,242.826172 262.007996,239.267349 
	C277.562256,233.085922 292.833862,226.080032 309.609009,223.375397 
	C313.882233,222.686447 317.536865,218.894180 323.439972,220.798233 
	C324.925415,222.084885 325.400055,222.814835 325.874695,223.544785 
z"/>
<path fill="#E2E4EF" opacity="1.000000" stroke="none" 
	d="
M2516.115723,470.015503 
	C2508.321777,448.377960 2499.734375,427.087555 2488.564697,406.923401 
	C2473.970459,380.577667 2456.385254,356.436737 2435.992188,334.247681 
	C2405.663330,301.247375 2370.252686,275.083618 2330.566895,254.505722 
	C2328.847168,253.613937 2327.332764,252.325470 2325.920898,250.517822 
	C2330.135010,251.083679 2334.433838,251.809204 2338.117676,253.720093 
	C2351.947998,260.894012 2365.504883,268.464539 2378.061035,277.893463 
	C2389.012451,286.117157 2399.676270,294.578217 2410.258789,303.254364 
	C2423.020264,313.716797 2434.636719,325.049652 2445.339600,337.309021 
	C2455.931641,349.441650 2465.496826,362.400909 2474.623047,375.842041 
	C2485.931885,392.497864 2495.859375,409.723450 2504.794678,427.602600 
	C2508.670410,435.357361 2511.357910,443.721863 2514.357666,451.892883 
	C2516.361328,457.351379 2517.963379,462.957245 2519.028076,469.232361 
	C2517.579102,469.983582 2516.847412,469.999542 2516.115723,470.015503 
z"/>
<path fill="#DAE0FF" opacity="1.000000" stroke="none" 
	d="
M37.908340,553.949646 
	C37.935947,559.941833 37.987583,565.934021 37.987686,571.926208 
	C37.991783,803.006775 37.991547,1034.087402 37.988361,1265.167969 
	C37.988304,1269.496338 37.946003,1273.824585 37.269611,1279.031494 
	C36.245914,1279.882568 35.876019,1279.854980 35.506119,1279.827271 
	C35.546684,1275.828491 35.622551,1271.829712 35.622772,1267.830933 
	C35.636059,1030.506226 35.643101,793.181396 36.299595,554.914795 
	C36.948452,553.972900 37.908340,553.949646 37.908340,553.949646 
z"/>
<path fill="#F5F7FF" opacity="1.000000" stroke="none" 
	d="
M377.941620,2111.784424 
	C415.537231,2111.784424 453.132843,2111.784424 491.768219,2111.784424 
	C491.942261,2116.611816 492.202332,2120.481934 492.203522,2124.352051 
	C492.227692,2203.685059 492.118774,2283.018555 492.316467,2362.351074 
	C492.352905,2376.974121 493.606873,2391.593994 493.670349,2407.103027 
	C492.163147,2407.981445 491.284454,2407.971924 490.405701,2407.962402 
	C490.150604,2404.340820 489.674438,2400.719727 489.672791,2397.098389 
	C489.635742,2315.778076 489.704620,2234.457520 489.591492,2153.137207 
	C489.576477,2142.341309 488.725189,2131.544434 488.148926,2120.753906 
	C488.082764,2119.514893 487.290100,2118.314941 486.530853,2116.285889 
	C450.963135,2116.285889 415.379272,2116.285889 378.936157,2115.306152 
	C378.031799,2113.479248 377.986725,2112.631836 377.941620,2111.784424 
z"/>
<path fill="#DCDFED" opacity="1.000000" stroke="none" 
	d="
M2322.885010,2078.404297 
	C2324.588867,2076.323730 2326.855957,2073.917725 2329.634033,2072.544434 
	C2371.592041,2051.805176 2408.360107,2024.090088 2439.393066,1989.171997 
	C2452.151123,1974.816772 2462.945068,1958.717285 2474.652832,1943.426758 
	C2476.649658,1940.818848 2478.747803,1938.288208 2481.492920,1935.923340 
	C2480.662598,1940.322876 2479.817871,1944.953369 2477.477295,1948.631958 
	C2472.104492,1957.076904 2466.301270,1965.293579 2460.104980,1973.155396 
	C2454.854736,1979.817261 2448.846924,1985.886841 2443.102539,1992.152466 
	C2438.109619,1997.598389 2433.195801,2003.136108 2427.908691,2008.286377 
	C2423.790039,2012.298828 2418.780273,2015.421997 2414.812012,2019.559326 
	C2401.385010,2033.558105 2385.156494,2044.062988 2369.680420,2055.376221 
	C2358.681641,2063.416504 2346.083740,2069.312744 2334.002686,2075.799805 
	C2330.950195,2077.438965 2327.145264,2077.677246 2322.885010,2078.404297 
z"/>
<path fill="#DAE0FF" opacity="1.000000" stroke="none" 
	d="
M37.722008,1289.989868 
	C37.811508,1294.312134 37.978264,1298.634399 37.979347,1302.956665 
	C38.017864,1456.696289 38.040852,1610.435913 37.510391,1765.101807 
	C36.954765,1766.028076 35.986355,1765.981689 35.986351,1765.981689 
	C35.864868,1762.326172 35.637531,1758.670532 35.637142,1755.015015 
	C35.621098,1603.707275 35.626308,1452.399414 35.620651,1301.091675 
	C35.620541,1298.093994 35.523228,1295.096313 35.945156,1291.121704 
	C36.853371,1290.093262 37.287689,1290.041626 37.722008,1289.989868 
z"/>
<path fill="#DADDEB" opacity="1.000000" stroke="none" 
	d="
M349.963745,2108.185547 
	C353.470917,2108.657227 356.978058,2109.128906 361.237671,2110.281006 
	C361.993164,2111.328125 361.996216,2111.694824 361.999298,2112.061523 
	C351.783966,2112.502686 341.564240,2113.000977 331.993958,2108.276855 
	C331.419769,2107.993652 330.671143,2107.785645 330.063385,2107.890137 
	C321.579102,2109.347900 314.156128,2105.432129 306.431946,2103.188232 
	C297.521698,2100.599854 288.613281,2097.956299 279.857208,2094.898193 
	C267.646973,2090.633789 255.740906,2085.883789 244.088013,2079.924072 
	C231.091568,2073.277344 217.903961,2067.159668 205.909470,2058.760986 
	C195.857910,2051.722412 185.833740,2044.644653 175.816437,2036.878418 
	C178.700333,2037.258179 181.976746,2037.777344 184.367935,2039.514893 
	C216.066422,2062.548096 250.200378,2081.007568 287.604126,2092.723633 
	C306.880524,2098.761475 326.800720,2102.743896 347.368500,2108.151367 
	C348.859253,2108.493652 349.411469,2108.339600 349.963745,2108.185547 
z"/>
<path fill="#E0E2EF" opacity="1.000000" stroke="none" 
	d="
M531.955872,2473.468018 
	C535.562500,2475.725342 539.264771,2477.843994 542.760986,2480.260986 
	C582.483398,2507.720215 624.191956,2509.659912 666.878906,2488.616211 
	C678.915222,2482.682861 689.336365,2473.473145 701.246704,2466.305664 
	C702.063660,2467.382568 702.132141,2467.920166 702.200623,2468.457520 
	C695.423401,2478.237793 685.076599,2483.657959 675.238892,2489.274902 
	C664.711365,2495.285645 653.537170,2500.420898 642.142456,2504.550537 
	C636.160767,2506.718262 629.106384,2506.320068 622.531128,2506.368896 
	C610.596619,2506.457764 598.638123,2506.343750 586.731750,2505.621338 
	C582.384460,2505.357666 578.170044,2503.076416 573.872253,2501.791992 
	C559.701416,2497.557129 547.046570,2490.562012 535.889771,2480.881104 
	C534.682983,2479.833984 533.904541,2478.292969 532.458801,2475.851074 
	C531.978760,2474.303223 531.967285,2473.885742 531.955872,2473.468018 
z"/>
<path fill="#D2D5E7" opacity="1.000000" stroke="none" 
	d="
M38.021778,553.103394 
	C37.908340,553.949646 36.948452,553.972900 36.468872,553.995117 
	C35.656612,544.871582 36.178219,535.942017 37.443607,526.729187 
	C39.069771,514.889709 42.358818,503.404907 43.914661,491.558990 
	C44.943336,483.726898 48.086292,475.830933 50.531006,468.058350 
	C56.949120,447.652740 64.523758,427.680939 75.989548,409.429901 
	C76.492188,408.629822 76.488342,407.511566 77.234665,406.020844 
	C78.184532,406.164764 78.620148,406.829376 79.571114,407.801056 
	C73.411491,423.271729 66.216576,438.231537 60.175968,453.643738 
	C49.483826,480.924011 42.791737,509.264343 39.809616,538.449707 
	C39.338432,543.061035 38.697605,547.655090 38.021778,553.103394 
z"/>
<path fill="#DADDEB" opacity="1.000000" stroke="none" 
	d="
M57.727787,1868.002808 
	C69.838013,1900.545288 85.252594,1931.368408 105.748108,1959.493774 
	C112.968102,1969.401367 120.592522,1979.014282 127.969650,1989.469971 
	C121.505341,1988.386719 117.631783,1983.195801 114.096581,1978.411865 
	C102.216248,1962.336182 89.512817,1946.792725 81.145180,1928.323364 
	C76.679825,1918.467163 70.555298,1909.355103 66.207336,1899.455811 
	C61.979572,1889.830322 59.064434,1879.628174 56.183289,1868.854004 
	C56.793652,1868.028564 57.727787,1868.002808 57.727787,1868.002808 
z"/>
<path fill="#D8DBEA" opacity="1.000000" stroke="none" 
	d="
M702.899963,2468.272461 
	C702.132141,2467.920166 702.063660,2467.382568 701.892517,2466.035156 
	C717.432861,2451.829834 733.026611,2438.376709 748.735840,2425.060059 
	C759.639282,2415.817383 770.651428,2406.700439 781.728394,2397.666504 
	C784.516418,2395.392822 787.740112,2393.652832 791.465698,2391.906250 
	C789.973206,2394.857910 788.156067,2398.030273 785.515503,2400.200684 
	C776.291321,2407.782959 766.611816,2414.814209 757.433044,2422.448730 
	C749.267029,2429.240967 741.592407,2436.621338 733.594910,2443.620850 
	C727.227478,2449.193848 720.752869,2454.648193 714.222656,2460.030273 
	C710.795776,2462.854736 707.147583,2465.410400 702.899963,2468.272461 
z"/>
<path fill="#D2D5E7" opacity="1.000000" stroke="none" 
	d="
M2192.647461,215.567474 
	C2191.817627,214.684097 2191.850098,213.979507 2191.933105,212.747437 
	C2194.096680,212.876968 2196.175537,213.938110 2198.328613,214.120804 
	C2207.467285,214.896194 2216.626709,215.433365 2225.781250,216.013046 
	C2231.954590,216.403961 2238.487061,215.040588 2243.730469,219.809113 
	C2256.660400,219.419159 2268.050537,225.769897 2280.262207,228.537506 
	C2289.438965,230.617294 2297.843994,236.102509 2307.323242,240.850525 
	C2308.036865,242.332977 2308.019775,243.036636 2308.002686,243.740280 
	C2282.875732,234.187103 2257.467529,225.555298 2230.837158,221.194382 
	C2218.429932,219.162659 2205.954346,217.549271 2192.647461,215.567474 
z"/>
<path fill="#D8DBEA" opacity="1.000000" stroke="none" 
	d="
M792.860779,2392.143799 
	C793.319519,2390.075439 794.015137,2387.423828 795.728271,2385.975830 
	C815.677307,2369.114258 835.752563,2352.401123 855.885010,2335.758545 
	C857.844360,2334.138672 860.407776,2333.249512 863.415405,2332.032227 
	C858.962097,2339.597900 852.566406,2345.703125 844.439148,2350.183594 
	C841.144592,2352.000000 838.841431,2355.530029 835.833069,2357.966309 
	C828.036011,2364.281738 820.041260,2370.352783 812.244385,2376.668213 
	C809.218689,2379.119141 806.630737,2382.107666 803.629211,2384.592529 
	C800.407288,2387.260010 796.933960,2389.623535 792.860779,2392.143799 
z"/>
<path fill="#DADDEB" opacity="1.000000" stroke="none" 
	d="
M2234.892578,2107.987793 
	C2234.012939,2107.629639 2233.991943,2107.210693 2233.970703,2106.160645 
	C2245.745850,2102.378418 2257.687988,2099.738037 2269.255127,2095.951416 
	C2284.974609,2090.805664 2300.403809,2084.774414 2315.967285,2079.149658 
	C2317.509033,2078.592529 2319.118164,2078.221191 2321.455566,2077.967285 
	C2320.239258,2083.998291 2314.501709,2084.961914 2309.957520,2086.731934 
	C2296.756836,2091.874023 2283.283203,2096.324951 2269.864014,2100.892334 
	C2266.498535,2102.037598 2262.974609,2103.008789 2259.454590,2103.349365 
	C2251.390625,2104.129150 2244.164795,2109.117188 2234.892578,2107.987793 
z"/>
<path fill="#DADDEB" opacity="1.000000" stroke="none" 
	d="
M914.853455,2290.308838 
	C914.876465,2288.550537 915.195068,2286.407227 916.437561,2285.360352 
	C936.356689,2268.575439 956.389038,2251.924805 976.423889,2235.277344 
	C977.154907,2234.669922 978.173645,2234.408447 979.768677,2234.159180 
	C979.138672,2240.812988 972.949585,2243.162598 969.088684,2247.478516 
	C967.238403,2249.546875 964.201721,2250.499023 962.019653,2252.333984 
	C947.123718,2264.860107 932.317322,2277.492676 917.447510,2290.050049 
	C917.020996,2290.410400 916.210449,2290.316162 914.853455,2290.308838 
z"/>
<path fill="#DCDFED" opacity="1.000000" stroke="none" 
	d="
M490.656189,2408.692871 
	C491.284454,2407.971924 492.163147,2407.981445 493.702972,2407.988281 
	C496.040802,2412.922852 497.642059,2417.886963 499.408325,2422.791748 
	C505.050354,2438.459717 513.391968,2452.471191 524.970825,2464.528320 
	C526.972595,2466.612549 528.483887,2469.167725 530.143677,2472.265625 
	C524.485840,2472.129639 520.720032,2469.154297 517.979492,2464.069824 
	C515.404297,2459.292480 511.863403,2455.028809 508.678619,2450.588135 
	C499.761261,2438.154297 493.869659,2424.423340 490.656189,2408.692871 
z"/>
<path fill="#DCDFED" opacity="1.000000" stroke="none" 
	d="
M1082.980713,2150.418457 
	C1083.393066,2148.163574 1084.051880,2145.509033 1085.743164,2144.058105 
	C1097.077026,2134.336182 1108.774658,2125.035645 1120.036011,2115.232666 
	C1124.054565,2111.734375 1128.319702,2111.565430 1133.869873,2112.116699 
	C1133.415771,2113.600586 1132.328735,2115.356445 1130.754272,2116.177002 
	C1127.078003,2118.093262 1122.623901,2118.865723 1119.457642,2121.344482 
	C1111.059814,2127.917969 1103.243286,2135.228027 1095.060547,2142.084473 
	C1091.443359,2145.115479 1087.500000,2147.757080 1082.980713,2150.418457 
z"/>
<path fill="#DADDEB" opacity="1.000000" stroke="none" 
	d="
M864.790894,2332.238770 
	C864.786133,2330.473145 865.050354,2328.281250 866.285034,2327.242188 
	C880.781555,2315.040283 895.416077,2303.001953 910.050293,2290.964844 
	C910.782471,2290.362305 911.845642,2290.162109 913.463257,2289.950195 
	C909.150879,2295.569092 904.511841,2301.438477 899.020142,2306.355957 
	C890.659729,2313.842041 881.758545,2320.731201 872.974060,2327.731934 
	C870.702698,2329.542236 868.009888,2330.823486 864.790894,2332.238770 
z"/>
<path fill="#DCDFED" opacity="1.000000" stroke="none" 
	d="
M2490.863770,1922.124268 
	C2490.796143,1919.411011 2491.088867,1916.490234 2492.193848,1913.918457 
	C2499.177246,1897.664551 2506.340820,1881.488037 2514.249023,1864.636719 
	C2515.053223,1863.987549 2516.019043,1863.999512 2516.019043,1863.999512 
	C2514.291260,1871.483154 2513.513184,1879.359009 2510.620361,1886.361328 
	C2505.914795,1897.751587 2499.856934,1908.586304 2494.268311,1919.604004 
	C2493.753418,1920.618652 2492.506836,1921.262329 2490.863770,1922.124268 
z"/>
<path fill="#D2D5E7" opacity="1.000000" stroke="none" 
	d="
M2516.870117,1862.072998 
	C2516.354004,1859.598999 2516.304688,1856.968872 2516.885254,1854.486084 
	C2520.535645,1838.870483 2524.325928,1823.287598 2528.640137,1807.198853 
	C2529.991455,1807.781860 2530.772705,1808.859863 2531.553955,1809.937866 
	C2531.641602,1811.577515 2532.122559,1813.312256 2531.753174,1814.841431 
	C2529.278076,1825.083496 2526.852783,1835.348389 2523.933838,1845.468262 
	C2522.306152,1851.110596 2519.760498,1856.488159 2516.870117,1862.072998 
z"/>
<path fill="#D8DBEA" opacity="1.000000" stroke="none" 
	d="
M2516.161377,470.781433 
	C2516.847412,469.999542 2517.579102,469.983582 2518.860107,469.974792 
	C2524.699707,480.858765 2527.061279,492.486511 2528.591309,504.391296 
	C2529.117676,508.488739 2530.698975,512.450623 2531.262207,517.602295 
	C2529.908691,519.816833 2529.091797,520.903503 2528.274658,521.990173 
	C2524.251953,505.175903 2520.229492,488.361633 2516.161377,470.781433 
z"/>
<path fill="#D2D5E7" opacity="1.000000" stroke="none" 
	d="
M326.670288,223.561462 
	C325.400055,222.814835 324.925415,222.084885 324.257996,220.960785 
	C333.953156,214.290131 345.437042,215.949463 356.222931,214.244492 
	C362.863831,213.194748 369.655640,213.099579 377.213562,212.381226 
	C378.078217,212.902649 378.108948,213.618668 378.172089,214.869553 
	C361.291626,218.128998 344.378784,220.853561 326.670288,223.561462 
z"/>
<path fill="#DADDEB" opacity="1.000000" stroke="none" 
	d="
M1032.877808,2192.306641 
	C1033.256836,2190.094971 1033.872192,2187.444092 1035.536987,2186.020752 
	C1045.021240,2177.911865 1054.755737,2170.095703 1065.828125,2162.144043 
	C1067.759888,2162.198242 1068.268677,2162.288574 1068.777466,2162.378906 
	C1057.051270,2172.397461 1045.325073,2182.416260 1032.877808,2192.306641 
z"/>
<path fill="#DADDEB" opacity="1.000000" stroke="none" 
	d="
M1000.848022,2218.310059 
	C1000.489990,2217.024170 1000.520142,2215.456299 1001.313660,2214.767334 
	C1009.570679,2207.598145 1017.914978,2200.527344 1026.336182,2193.551514 
	C1027.541992,2192.552734 1029.284546,2192.201904 1031.471313,2191.854248 
	C1028.782104,2196.029541 1025.706421,2200.234375 1021.945984,2203.695068 
	C1016.403259,2208.796143 1010.405090,2213.407227 1004.504578,2218.106445 
	C1003.856689,2218.622559 1002.577148,2218.345215 1000.848022,2218.310059 
z"/>
<path fill="#DADDEB" opacity="1.000000" stroke="none" 
	d="
M127.754623,1990.827148 
	C129.007324,1990.454468 130.561432,1990.446411 131.321106,1991.219238 
	C139.632248,1999.673950 147.819244,2008.250854 155.980072,2017.485596 
	C142.817902,2013.217163 134.714554,2002.956177 127.754623,1990.827148 
z"/>
<path fill="#B5BAD7" opacity="1.000000" stroke="none" 
	d="
M2528.198486,522.832092 
	C2529.091797,520.903503 2529.908691,519.816833 2531.131836,518.403931 
	C2535.122070,532.016113 2533.826904,546.209900 2533.714844,561.315918 
	C2532.530762,555.912842 2531.205078,549.559265 2530.283203,543.147644 
	C2529.354004,536.686523 2528.826172,530.167603 2528.198486,522.832092 
z"/>
<path fill="#D2D5E7" opacity="1.000000" stroke="none" 
	d="
M35.771694,1766.745361 
	C35.986355,1765.981689 36.954765,1766.028076 37.439201,1766.040039 
	C38.654823,1774.777100 39.386017,1783.501953 39.602379,1793.113281 
	C39.087551,1793.999634 38.179314,1794.003296 38.179298,1794.003296 
	C37.277931,1791.361572 35.759319,1788.756348 35.599838,1786.070557 
	C35.233665,1779.904297 35.529774,1773.698608 35.771694,1766.745361 
z"/>
<path fill="#B5BAD7" opacity="1.000000" stroke="none" 
	d="
M2531.743164,1809.105713 
	C2530.772705,1808.859863 2529.991455,1807.781860 2528.804199,1806.408691 
	C2529.818359,1795.215942 2531.238770,1784.318481 2533.033203,1772.740479 
	C2533.868408,1784.169922 2535.365479,1796.322144 2531.743164,1809.105713 
z"/>
<path fill="#DADDEB" opacity="1.000000" stroke="none" 
	d="
M155.866074,2018.783447 
	C164.283508,2021.650879 170.487961,2027.995239 176.085785,2035.487061 
	C173.405075,2034.907959 170.567932,2034.071289 168.587128,2032.285034 
	C164.136093,2028.271240 160.110046,2023.786377 155.866074,2018.783447 
z"/>
<path fill="#DADDEB" opacity="1.000000" stroke="none" 
	d="
M980.967712,2234.875488 
	C984.198181,2226.450195 991.897034,2222.637451 999.462036,2217.995361 
	C996.563843,2226.596924 989.020386,2230.842529 980.967712,2234.875488 
z"/>
<path fill="#D2D5E7" opacity="1.000000" stroke="none" 
	d="
M57.678017,1867.258545 
	C57.727787,1868.002808 56.793652,1868.028564 56.326492,1868.037354 
	C54.848125,1867.241577 53.172783,1866.599121 52.930870,1865.607056 
	C50.996784,1857.675659 49.333878,1849.677979 47.711941,1840.844482 
	C51.100037,1848.830200 54.364140,1857.672363 57.678017,1867.258545 
z"/>
<path fill="#E2E4EF" opacity="1.000000" stroke="none" 
	d="
M2308.634766,244.097702 
	C2308.019775,243.036636 2308.036865,242.332977 2308.033203,241.101166 
	C2314.957764,241.015411 2320.649414,244.323029 2326.076416,249.145233 
	C2319.436035,251.481949 2314.849121,246.411606 2308.634766,244.097702 
z"/>
<path fill="#D2D5E7" opacity="1.000000" stroke="none" 
	d="
M43.662495,1813.949707 
	C45.177029,1822.117310 46.691574,1830.284790 48.060154,1839.297363 
	C40.867577,1835.701904 43.842613,1827.776489 41.594925,1821.660767 
	C40.961754,1819.937866 41.544308,1817.768188 42.144646,1814.920532 
	C42.720085,1814.037598 43.662502,1813.949707 43.662495,1813.949707 
z"/>
<path fill="#B5BAD7" opacity="1.000000" stroke="none" 
	d="
M43.735054,1813.163086 
	C43.662502,1813.949707 42.720085,1814.037598 42.247032,1814.051270 
	C40.525932,1811.928467 38.538933,1809.903931 38.194633,1807.630615 
	C37.607288,1803.752441 38.051125,1799.718140 38.120537,1794.876465 
	C38.179314,1794.003296 39.087551,1793.999634 39.541626,1794.003906 
	C41.266338,1800.130981 42.536972,1806.253662 43.735054,1813.163086 
z"/>
<path fill="#DCDFED" opacity="1.000000" stroke="none" 
	d="
M1069.463867,2162.404785 
	C1068.268677,2162.288574 1067.759888,2162.198242 1066.482910,2161.994629 
	C1070.168945,2158.424561 1074.623291,2154.968018 1079.691895,2151.986328 
	C1076.920654,2155.784424 1073.535400,2159.107422 1069.463867,2162.404785 
z"/>
<path fill="#DCDFED" opacity="1.000000" stroke="none" 
	d="
M2482.863770,1936.065186 
	C2481.158203,1929.967896 2485.386230,1926.204224 2489.465820,1922.055664 
	C2491.695557,1928.471191 2485.460693,1931.181396 2482.863770,1936.065186 
z"/>
<path fill="#D2D5E7" opacity="1.000000" stroke="none" 
	d="
M37.837791,1289.163818 
	C37.287689,1290.041626 36.853371,1290.093262 35.767578,1290.218750 
	C34.874371,1286.964478 34.632629,1283.636108 34.948505,1280.067627 
	C35.876019,1279.854980 36.245914,1279.882568 37.168877,1279.961426 
	C37.799152,1282.787598 37.876366,1285.562622 37.837791,1289.163818 
z"/>
<path fill="#DCDFED" opacity="1.000000" stroke="none" 
	d="
M362.861145,2112.231689 
	C361.996216,2111.694824 361.993164,2111.328125 361.988861,2110.411133 
	C366.353058,2110.204102 370.718506,2110.547607 375.562378,2111.530518 
	C371.934814,2112.247314 367.828918,2112.324707 362.861145,2112.231689 
z"/>
<path fill="#DCDFED" opacity="1.000000" stroke="none" 
	d="
M377.402679,2111.779297 
	C377.986725,2112.631836 378.031799,2113.479248 378.058777,2114.960938 
	C377.318329,2114.823975 376.596039,2114.052979 375.856537,2112.695801 
	C376.180786,2111.998047 376.522247,2111.886230 377.402679,2111.779297 
z"/>
<path fill="#DCDFED" opacity="1.000000" stroke="none" 
	d="
M1081.072754,2152.516113 
	C1080.545410,2151.540283 1080.690186,2150.730469 1081.557739,2150.063965 
	C1082.102051,2151.032227 1081.923462,2151.857178 1081.072754,2152.516113 
z"/>
<path fill="#D2D5E7" opacity="1.000000" stroke="none" 
	d="
M2516.190918,1863.527588 
	C2516.019043,1863.999512 2515.053223,1863.987549 2514.571289,1863.986572 
	C2514.420410,1863.359253 2514.751465,1862.732788 2515.633789,1862.086670 
	C2516.244385,1862.396606 2516.303467,1862.726196 2516.190918,1863.527588 
z"/>
<path fill="#DCDFED" opacity="1.000000" stroke="none" 
	d="
M531.477661,2473.308105 
	C531.967285,2473.885742 531.978760,2474.303223 531.993530,2475.347656 
	C531.373962,2475.421631 530.751160,2474.868896 530.070557,2473.628906 
	C530.341614,2473.010498 530.670593,2473.079346 531.477661,2473.308105 
z"/>
<path fill="#FFFFFF" opacity="1.000000" stroke="none" 
	d="
M646.424683,2342.440918 
	C639.209656,2348.361084 632.531799,2353.819336 626.107605,2359.070312 
	C625.201599,2358.739746 624.851562,2358.678711 624.586304,2358.495361 
	C624.353210,2358.333984 624.119812,2358.059082 624.053772,2357.792969 
	C623.894714,2357.152588 623.799316,2356.491211 623.742615,2355.832764 
	C623.685547,2355.170166 623.695007,2354.500732 623.694824,2353.834473 
	C623.655579,2232.174561 623.618286,2110.514648 623.573120,1988.854736 
	C623.572815,1988.192261 623.468872,1987.529053 623.397217,1986.867798 
	C623.361328,1986.536987 623.341980,1986.188477 623.218445,1985.887695 
	C623.095764,1985.589111 622.851746,1985.340210 621.888855,1983.973877 
	C618.878540,1983.852051 615.009583,1983.560669 611.140503,1983.558960 
	C544.810791,1983.530029 478.480988,1983.582275 412.151337,1983.514648 
	C383.319519,1983.485352 354.864410,1980.044434 327.738373,1970.059937 
	C239.829956,1937.702148 186.282501,1875.671265 168.641647,1783.365234 
	C166.839066,1773.933228 166.732300,1764.165161 166.041107,1754.538452 
	C165.731400,1750.225220 165.890259,1745.875977 165.890213,1741.543091 
	C165.886551,1354.230835 165.929993,966.918640 165.825256,579.606384 
	C165.814667,540.440125 174.622787,503.530396 193.449081,469.364502 
	C227.961746,406.731079 280.520844,367.286316 349.810303,349.802887 
	C371.650452,344.292114 393.899475,342.746826 416.192749,342.741638 
	C995.494507,342.606812 1574.796387,342.643890 2154.098145,342.618622 
	C2203.398682,342.616486 2250.096680,352.572968 2292.236572,379.167389 
	C2356.123779,419.486328 2393.201416,477.330719 2403.479736,552.150391 
	C2405.015869,563.332642 2405.488525,574.739380 2405.490723,586.042480 
	C2405.567139,971.354797 2405.584717,1356.667114 2405.450195,1741.979492 
	C2405.425781,1811.485962 2380.787354,1870.961914 2329.824463,1918.576050 
	C2293.839844,1952.196167 2251.145752,1973.090454 2202.210693,1980.058594 
	C2186.448730,1982.302979 2170.403076,1983.554077 2154.486328,1983.562744 
	C1799.838989,1983.755371 1445.191528,1983.731445 1090.544189,1983.581055 
	C1082.120728,1983.577515 1075.677612,1985.651001 1068.998901,1991.222046 
	C973.306396,2071.044922 877.321960,2150.517578 781.441162,2230.114746 
	C736.577942,2267.358643 691.786072,2304.688232 646.424683,2342.440918 
M2119.660645,935.344543 
	C2112.706543,932.174011 2105.910889,928.580139 2098.770752,925.905884 
	C2066.785889,913.925903 2033.284302,911.000610 1999.554321,910.738892 
	C1945.583130,910.320068 1891.606323,910.618713 1837.631958,910.640686 
	C1834.702515,910.641846 1831.773071,910.887878 1828.358643,911.041870 
	C1828.358643,1073.258545 1828.358643,1234.956299 1828.358643,1397.553955 
	C1832.478149,1397.553955 1836.068481,1397.553955 1839.658813,1397.553955 
	C1890.301514,1397.553955 1940.944702,1397.689209 1991.586426,1397.477173 
	C2008.226562,1397.407471 2024.916016,1397.089478 2041.489136,1395.736572 
	C2070.612305,1393.359253 2098.609863,1386.220581 2124.614258,1372.518066 
	C2160.098145,1353.820435 2183.627197,1325.479370 2193.059570,1286.118530 
	C2197.611084,1267.125244 2198.332275,1247.852417 2195.762695,1228.542603 
	C2191.142090,1193.820190 2174.246338,1167.344604 2142.273682,1151.728638 
	C2133.957520,1147.666870 2124.926514,1145.077026 2116.252686,1141.735229 
	C2114.081787,1140.898804 2112.023682,1139.768188 2108.656250,1138.179443 
	C2111.650879,1136.588501 2113.028320,1135.762573 2114.480469,1135.099121 
	C2138.465820,1124.143677 2154.531250,1105.775024 2164.061523,1081.533936 
	C2171.991211,1061.364258 2174.394531,1040.479126 2172.523438,1018.803833 
	C2169.369629,982.269104 2152.908203,954.420898 2119.660645,935.344543 
M1375.458008,1278.269775 
	C1363.084229,1317.725464 1350.710327,1357.181152 1338.168091,1397.173828 
	C1376.323242,1397.173828 1412.884277,1397.173828 1450.072876,1397.173828 
	C1460.033325,1358.730835 1469.942505,1320.485840 1479.837646,1282.295166 
	C1529.709229,1282.295166 1578.880981,1282.295166 1628.531006,1282.295166 
	C1638.525635,1320.853638 1648.426270,1359.049438 1658.246826,1396.936279 
	C1697.340088,1396.936279 1735.440796,1396.936279 1774.601074,1396.936279 
	C1723.728638,1234.336670 1673.127930,1072.605103 1622.564819,910.994263 
	C1577.961548,910.994263 1534.411743,910.994263 1490.262085,910.994263 
	C1452.100342,1033.015259 1413.991089,1154.868530 1375.458008,1278.269775 
M406.426056,1304.999756 
	C406.426056,1335.551270 406.426056,1366.102661 406.426056,1397.000488 
	C507.708832,1397.000488 607.823914,1397.000488 708.316162,1397.000488 
	C708.316162,1366.259888 708.316162,1336.080200 708.316162,1304.905029 
	C695.272949,1304.905029 682.702026,1304.905151 670.131104,1304.905151 
	C657.131348,1304.905151 644.131592,1304.905151 631.131836,1304.905151 
	C618.465393,1304.905151 605.799011,1304.905151 593.132568,1304.905151 
	C580.132812,1304.905151 567.132019,1305.007812 554.133606,1304.875488 
	C541.664001,1304.748657 529.146667,1305.491211 516.018066,1304.282837 
	C516.018066,1172.689209 516.018066,1042.155762 516.018066,911.358887 
	C479.164001,911.358887 443.065247,911.358887 406.425293,911.358887 
	C406.425293,1042.401001 406.425293,1172.700439 406.426056,1304.999756 
M1017.913513,1380.864990 
	C1017.913513,1386.108154 1017.913513,1391.351318 1017.913513,1397.058838 
	C1118.993530,1397.058838 1219.078491,1397.058838 1319.650635,1397.058838 
	C1319.650635,1366.382568 1319.650635,1336.201782 1319.650635,1304.834717 
	C1255.786011,1304.834717 1192.070679,1304.834717 1127.439697,1304.834717 
	C1127.439697,1172.922241 1127.439697,1042.190796 1127.439697,911.587219 
	C1112.350952,909.611816 1025.117554,910.234741 1017.913513,912.372131 
	C1017.913513,1067.789917 1017.913513,1223.342651 1017.913513,1380.864990 
M793.344055,1058.999634 
	C793.344055,1171.506104 793.344055,1284.012695 793.344055,1397.027466 
	C830.083252,1397.027466 865.906494,1397.027466 901.692627,1397.027466 
	C903.776367,1386.244019 903.296570,917.847290 901.234131,911.055786 
	C873.202332,909.373047 801.353516,910.139099 793.344055,912.361328 
	C793.344055,960.464844 793.344055,1008.732178 793.344055,1058.999634 
z"/>
<path fill="#DCDFED" opacity="1.000000" stroke="none" 
	d="
M349.476807,2108.063965 
	C349.411469,2108.339600 348.859253,2108.493652 348.147095,2108.315918 
	C348.321442,2107.970459 348.655701,2107.956787 349.476807,2108.063965 
z"/>
<path fill="#020202" opacity="1.000000" stroke="none" 
	d="
M2120.320801,935.669983 
	C2152.908203,954.420898 2169.369629,982.269104 2172.523438,1018.803833 
	C2174.394531,1040.479126 2171.991211,1061.364258 2164.061523,1081.533936 
	C2154.531250,1105.775024 2138.465820,1124.143677 2114.480469,1135.099121 
	C2113.028320,1135.762573 2111.650879,1136.588501 2108.656250,1138.179443 
	C2112.023682,1139.768188 2114.081787,1140.898804 2116.252686,1141.735229 
	C2124.926514,1145.077026 2133.957520,1147.666870 2142.273682,1151.728638 
	C2174.246338,1167.344604 2191.142090,1193.820190 2195.762695,1228.542603 
	C2198.332275,1247.852417 2197.611084,1267.125244 2193.059570,1286.118530 
	C2183.627197,1325.479370 2160.098145,1353.820435 2124.614258,1372.518066 
	C2098.609863,1386.220581 2070.612305,1393.359253 2041.489136,1395.736572 
	C2024.916016,1397.089478 2008.226562,1397.407471 1991.586426,1397.477173 
	C1940.944702,1397.689209 1890.301514,1397.553955 1839.658813,1397.553955 
	C1836.068481,1397.553955 1832.478149,1397.553955 1828.358643,1397.553955 
	C1828.358643,1234.956299 1828.358643,1073.258545 1828.358643,911.041870 
	C1831.773071,910.887878 1834.702515,910.641846 1837.631958,910.640686 
	C1891.606323,910.618713 1945.583130,910.320068 1999.554321,910.738892 
	C2033.284302,911.000610 2066.785889,913.925903 2098.770752,925.905884 
	C2105.910889,928.580139 2112.706543,932.174011 2120.320801,935.669983 
M2051.218262,1304.449585 
	C2074.118164,1295.994873 2087.015137,1279.488159 2089.267090,1255.339600 
	C2092.195312,1223.940552 2080.333740,1202.137573 2049.967041,1193.396118 
	C2039.821777,1190.475708 2029.150635,1188.333862 2018.640381,1187.936401 
	C1993.022095,1186.967041 1967.357666,1187.213745 1941.711304,1187.031494 
	C1940.501221,1187.022827 1939.286865,1187.597412 1938.214844,1187.865356 
	C1938.214844,1229.456665 1938.214844,1270.597778 1938.214844,1311.646851 
	C1965.411621,1311.646851 1992.020020,1312.250122 2018.577148,1311.346802 
	C2029.040039,1310.990845 2039.388550,1307.272705 2051.218262,1304.449585 
M2046.076294,1091.225342 
	C2065.675049,1075.458252 2068.946045,1054.580444 2063.703613,1031.714233 
	C2058.846436,1010.528687 2042.161743,1002.726562 2023.040527,998.406433 
	C2022.392700,998.260071 2021.730225,998.176147 2021.072021,998.079590 
	C1993.639648,994.053040 1966.093872,996.512390 1938.199463,995.704590 
	C1938.199463,1032.689331 1938.199463,1068.736450 1938.199463,1104.732544 
	C1961.339111,1104.732544 1983.898682,1105.215454 2006.424683,1104.553589 
	C2020.206421,1104.148560 2033.225830,1099.833374 2046.076294,1091.225342 
z"/>
<path fill="#020202" opacity="1.000000" stroke="none" 
	d="
M1375.669922,1277.495850 
	C1413.991089,1154.868530 1452.100342,1033.015259 1490.262085,910.994263 
	C1534.411743,910.994263 1577.961548,910.994263 1622.564819,910.994263 
	C1673.127930,1072.605103 1723.728638,1234.336670 1774.601074,1396.936279 
	C1735.440796,1396.936279 1697.340088,1396.936279 1658.246826,1396.936279 
	C1648.426270,1359.049438 1638.525635,1320.853638 1628.531006,1282.295166 
	C1578.880981,1282.295166 1529.709229,1282.295166 1479.837646,1282.295166 
	C1469.942505,1320.485840 1460.033325,1358.730835 1450.072876,1397.173828 
	C1412.884277,1397.173828 1376.323242,1397.173828 1338.168091,1397.173828 
	C1350.710327,1357.181152 1363.084229,1317.725464 1375.669922,1277.495850 
M1515.456787,1195.973022 
	C1545.360596,1195.973022 1575.264526,1195.973022 1605.918701,1195.973022 
	C1588.756958,1128.136108 1571.862183,1061.354614 1554.967529,994.573181 
	C1554.321411,994.644409 1553.675171,994.715637 1553.029053,994.786865 
	C1536.471558,1061.630005 1519.913940,1128.473267 1503.193726,1195.973022 
	C1507.001343,1195.973022 1510.304321,1195.973022 1515.456787,1195.973022 
z"/>
<path fill="#030303" opacity="1.000000" stroke="none" 
	d="
M406.425659,1303.999756 
	C406.425293,1172.700439 406.425293,1042.401001 406.425293,911.358887 
	C443.065247,911.358887 479.164001,911.358887 516.018066,911.358887 
	C516.018066,1042.155762 516.018066,1172.689209 516.018066,1304.282837 
	C529.146667,1305.491211 541.664001,1304.748657 554.133606,1304.875488 
	C567.132019,1305.007812 580.132812,1304.905151 593.132568,1304.905151 
	C605.799011,1304.905151 618.465393,1304.905151 631.131836,1304.905151 
	C644.131592,1304.905151 657.131348,1304.905151 670.131104,1304.905151 
	C682.702026,1304.905151 695.272949,1304.905029 708.316162,1304.905029 
	C708.316162,1336.080200 708.316162,1366.259888 708.316162,1397.000488 
	C607.823914,1397.000488 507.708832,1397.000488 406.426056,1397.000488 
	C406.426056,1366.102661 406.426056,1335.551270 406.425659,1303.999756 
z"/>
<path fill="#030303" opacity="1.000000" stroke="none" 
	d="
M1017.913513,1379.880249 
	C1017.913513,1223.342651 1017.913513,1067.789917 1017.913513,912.372131 
	C1025.117554,910.234741 1112.350952,909.611816 1127.439697,911.587219 
	C1127.439697,1042.190796 1127.439697,1172.922241 1127.439697,1304.834717 
	C1192.070679,1304.834717 1255.786011,1304.834717 1319.650635,1304.834717 
	C1319.650635,1336.201782 1319.650635,1366.382568 1319.650635,1397.058838 
	C1219.078491,1397.058838 1118.993530,1397.058838 1017.913513,1397.058838 
	C1017.913513,1391.351318 1017.913513,1386.108154 1017.913513,1379.880249 
z"/>
<path fill="#010101" opacity="1.000000" stroke="none" 
	d="
M793.344055,1057.999512 
	C793.344055,1008.732178 793.344055,960.464844 793.344055,912.361328 
	C801.353516,910.139099 873.202332,909.373047 901.234131,911.055786 
	C903.296570,917.847290 903.776367,1386.244019 901.692627,1397.027466 
	C865.906494,1397.027466 830.083252,1397.027466 793.344055,1397.027466 
	C793.344055,1284.012695 793.344055,1171.506104 793.344055,1057.999512 
z"/>
<path fill="#FDFDFD" opacity="1.000000" stroke="none" 
	d="
M2050.503662,1304.767578 
	C2039.388550,1307.272705 2029.040039,1310.990845 2018.577148,1311.346802 
	C1992.020020,1312.250122 1965.411621,1311.646851 1938.214844,1311.646851 
	C1938.214844,1270.597778 1938.214844,1229.456665 1938.214844,1187.865356 
	C1939.286865,1187.597412 1940.501221,1187.022827 1941.711304,1187.031494 
	C1967.357666,1187.213745 1993.022095,1186.967041 2018.640381,1187.936401 
	C2029.150635,1188.333862 2039.821777,1190.475708 2049.967041,1193.396118 
	C2080.333740,1202.137573 2092.195312,1223.940552 2089.267090,1255.339600 
	C2087.015137,1279.488159 2074.118164,1295.994873 2050.503662,1304.767578 
z"/>
<path fill="#FDFDFD" opacity="1.000000" stroke="none" 
	d="
M2045.468262,1091.634033 
	C2033.225830,1099.833374 2020.206421,1104.148560 2006.424683,1104.553589 
	C1983.898682,1105.215454 1961.339111,1104.732544 1938.199463,1104.732544 
	C1938.199463,1068.736450 1938.199463,1032.689331 1938.199463,995.704590 
	C1966.093872,996.512390 1993.639648,994.053040 2021.072021,998.079590 
	C2021.730225,998.176147 2022.392700,998.260071 2023.040527,998.406433 
	C2042.161743,1002.726562 2058.846436,1010.528687 2063.703613,1031.714233 
	C2068.946045,1054.580444 2065.675049,1075.458252 2045.468262,1091.634033 
z"/>
<path fill="#FBFBFB" opacity="1.000000" stroke="none" 
	d="
M1514.532104,1195.973022 
	C1510.304321,1195.973022 1507.001343,1195.973022 1503.193726,1195.973022 
	C1519.913940,1128.473267 1536.471558,1061.630005 1553.029053,994.786865 
	C1553.675171,994.715637 1554.321411,994.644409 1554.967529,994.573181 
	C1571.862183,1061.354614 1588.756958,1128.136108 1605.918701,1195.973022 
	C1575.264526,1195.973022 1545.360596,1195.973022 1514.532104,1195.973022 
z"/>
</svg>