<?xml version="1.0" encoding="UTF-8"?>
<!DOCTYPE svg PUBLIC "-//W3C//DTD SVG 1.1//EN" "http://www.w3.org/Graphics/SVG/1.1/DTD/svg11.dtd">
<svg xmlns="http://www.w3.org/2000/svg" version="1.1" width="2560px" height="2560px" style="shape-rendering:geometricPrecision; text-rendering:geometricPrecision; image-rendering:optimizeQuality; fill-rule:evenodd; clip-rule:evenodd" xmlns:xlink="http://www.w3.org/1999/xlink">
<g><path style="opacity:0.206" fill="#fcfcff" d="M 2529.5,559.5 C 2528.83,553.5 2528.17,547.5 2527.5,541.5C 2527.5,541.167 2527.5,540.833 2527.5,540.5C 2526.79,529.226 2525.12,518.226 2522.5,507.5C 2522.5,507.167 2522.5,506.833 2522.5,506.5C 2522.59,503.848 2521.92,501.515 2520.5,499.5C 2519.73,491.089 2517.73,483.089 2514.5,475.5C 2513.14,468.085 2510.81,461.085 2507.5,454.5C 2476.77,371.24 2423.1,307.073 2346.5,262C 2293.5,231.779 2236.5,215.113 2175.5,212C 1579.17,211.333 982.833,211.333 386.5,212C 275.263,218.701 184.096,264.534 113,349.5C 71.524,401.698 46.024,461.031 36.5,527.5C 35.7784,527.918 35.2784,528.584 35,529.5C 34.5017,532.817 34.335,536.15 34.5,539.5C 33.5022,948.146 33.1689,1356.81 33.5,1765.5C 33.3877,1771.73 34.0543,1777.73 35.5,1783.5C 36.3844,1789.43 37.051,1795.43 37.5,1801.5C 37.5,1804.17 37.5,1806.83 37.5,1809.5C 36.5041,1809.59 35.6708,1809.25 35,1808.5C 34.6667,1802.5 34.3333,1796.5 34,1790.5C 33.3333,1789.83 32.6667,1789.17 32,1788.5C 31.6667,1621.5 31.3333,1454.5 31,1287.5C 29.9229,1285.88 29.4229,1284.05 29.5,1282C 31.3253,1030.54 32.1586,779.039 32,527.5C 32.414,527.043 32.914,526.709 33.5,526.5C 34.4954,520.872 34.8288,515.206 34.5,509.5C 35.5,509.5 36.5,509.5 37.5,509.5C 37.2952,500.967 38.1286,492.633 40,484.5C 41.0113,483.663 42.1779,483.33 43.5,483.5C 43.5,479.5 43.5,475.5 43.5,471.5C 44.5,471.5 45.5,471.5 46.5,471.5C 47.0074,466.131 47.8407,460.798 49,455.5C 50.7028,451.371 52.7028,447.371 55,443.5C 56.0365,440.247 56.7031,436.914 57,433.5C 58.0113,432.663 59.1779,432.33 60.5,432.5C 60.5,430.167 60.5,427.833 60.5,425.5C 61.5,425.5 62.5,425.5 63.5,425.5C 64.1667,422.167 64.8333,418.833 65.5,415.5C 66.5,415.5 67.5,415.5 68.5,415.5C 68.3379,413.473 68.5045,411.473 69,409.5C 70.0113,408.663 71.1779,408.33 72.5,408.5C 72.5467,405.432 73.0467,402.432 74,399.5C 75.0113,398.663 76.1779,398.33 77.5,398.5C 76.6597,394.461 77.993,391.461 81.5,389.5C 82.7954,385.72 84.2954,382.053 86,378.5C 87.0113,377.663 88.1779,377.33 89.5,377.5C 90.8762,373.262 92.5429,369.262 94.5,365.5C 95.5,365.5 96.5,365.5 97.5,365.5C 97.3433,364.127 97.51,362.793 98,361.5C 100.684,358.748 103.35,356.081 106,353.5C 106.082,350.252 107.582,347.919 110.5,346.5C 111.386,345.675 111.719,344.675 111.5,343.5C 112.5,343.5 113.5,343.5 114.5,343.5C 114.5,342.5 114.5,341.5 114.5,340.5C 115.822,340.67 116.989,340.337 118,339.5C 119,337.167 120,334.833 121,332.5C 126.167,327.5 131.333,322.5 136.5,317.5C 137.386,316.675 137.719,315.675 137.5,314.5C 142.521,311.658 146.854,307.825 150.5,303C 152.868,302.144 155.202,301.31 157.5,300.5C 157.5,299.5 157.5,298.5 157.5,297.5C 158.675,297.719 159.675,297.386 160.5,296.5C 165.143,290.667 170.81,286 177.5,282.5C 179.636,278.52 182.969,276.186 187.5,275.5C 191.242,272.804 194.909,269.971 198.5,267C 200.134,266.506 201.801,266.34 203.5,266.5C 205.956,260.345 210.622,257.678 217.5,258.5C 217.5,257.167 217.5,255.833 217.5,254.5C 219.199,254.66 220.866,254.494 222.5,254C 223.5,252.333 224.833,251 226.5,250C 230.366,249.287 234.033,248.12 237.5,246.5C 237.36,244.876 238.027,243.71 239.5,243C 244.387,242.701 248.72,241.035 252.5,238C 254.473,237.505 256.473,237.338 258.5,237.5C 258.5,236.5 258.5,235.5 258.5,234.5C 261.247,234.813 263.914,234.48 266.5,233.5C 268.275,232.043 270.275,230.876 272.5,230C 275.146,229.503 277.813,229.336 280.5,229.5C 280.36,227.876 281.027,226.71 282.5,226C 291.238,223.277 300.238,221.443 309.5,220.5C 309.5,219.5 309.5,218.5 309.5,217.5C 314.214,217.827 318.88,217.493 323.5,216.5C 324.714,214.931 326.381,214.098 328.5,214C 343.11,212.255 357.777,211.088 372.5,210.5C 372.709,209.914 373.043,209.414 373.5,209C 674.167,208.833 974.834,208.333 1275.5,207.5C 1275.71,206.914 1276.04,206.414 1276.5,206C 1280.5,205.333 1284.5,205.333 1288.5,206C 1289.17,206.667 1289.83,207.333 1290.5,208C 1590.17,208.5 1889.83,208.667 2189.5,208.5C 2189.5,209.5 2189.5,210.5 2189.5,211.5C 2204.58,211.157 2219.58,211.99 2234.5,214C 2240.1,216.738 2246.1,218.238 2252.5,218.5C 2252.71,219.086 2253.04,219.586 2253.5,220C 2258.53,220.842 2263.53,221.842 2268.5,223C 2269.17,223.667 2269.83,224.333 2270.5,225C 2273.5,225.333 2276.5,225.667 2279.5,226C 2280.36,226.689 2281.02,227.522 2281.5,228.5C 2288.08,230.265 2294.41,232.265 2300.5,234.5C 2300.5,235.5 2300.5,236.5 2300.5,237.5C 2303.57,237.183 2306.57,237.516 2309.5,238.5C 2312.77,240.871 2316.44,242.371 2320.5,243C 2321.34,244.011 2321.67,245.178 2321.5,246.5C 2327.2,247.954 2332.86,249.62 2338.5,251.5C 2338.5,252.5 2338.5,253.5 2338.5,254.5C 2342.24,253.599 2344.24,254.932 2344.5,258.5C 2347.61,258.351 2350.61,258.851 2353.5,260C 2354.97,260.71 2355.64,261.876 2355.5,263.5C 2356.5,263.5 2357.5,263.5 2358.5,263.5C 2358.5,264.5 2358.5,265.5 2358.5,266.5C 2360.29,266.215 2361.95,266.548 2363.5,267.5C 2365.9,269.46 2368.57,270.96 2371.5,272C 2372.34,273.011 2372.67,274.178 2372.5,275.5C 2376.55,277.268 2380.55,278.934 2384.5,280.5C 2384.5,281.5 2384.5,282.5 2384.5,283.5C 2390.32,285.057 2394.99,288.391 2398.5,293.5C 2399.32,294.386 2400.32,294.719 2401.5,294.5C 2401.5,295.5 2401.5,296.5 2401.5,297.5C 2402.5,297.5 2403.5,297.5 2404.5,297.5C 2404.48,299.143 2405.15,300.476 2406.5,301.5C 2411.42,302.086 2414.42,304.753 2415.5,309.5C 2419.83,310.5 2422.5,313.167 2423.5,317.5C 2428.15,318.814 2431.15,321.814 2432.5,326.5C 2434.43,326.729 2436.1,327.562 2437.5,329C 2439.1,331.583 2441.1,333.75 2443.5,335.5C 2444.45,337.045 2444.79,338.712 2444.5,340.5C 2445.5,340.5 2446.5,340.5 2447.5,340.5C 2449.71,344.22 2452.54,347.553 2456,350.5C 2456.08,353.748 2457.58,356.081 2460.5,357.5C 2461.39,358.325 2461.72,359.325 2461.5,360.5C 2462.5,360.5 2463.5,360.5 2464.5,360.5C 2466.53,364.921 2468.2,369.588 2469.5,374.5C 2470.82,374.33 2471.99,374.663 2473,375.5C 2475.7,378.775 2477.53,382.442 2478.5,386.5C 2479.5,386.5 2480.5,386.5 2481.5,386.5C 2483.07,390.322 2484.57,394.322 2486,398.5C 2487.15,399.743 2488.49,400.743 2490,401.5C 2492.46,406.635 2494.63,411.968 2496.5,417.5C 2497.95,420.68 2499.78,423.68 2502,426.5C 2501.94,431.327 2503.6,435.327 2507,438.5C 2507.33,440.833 2507.67,443.167 2508,445.5C 2508.41,445.957 2508.91,446.291 2509.5,446.5C 2510.28,451.976 2512.11,456.976 2515,461.5C 2515.5,464.817 2515.67,468.15 2515.5,471.5C 2517.12,471.36 2518.29,472.027 2519,473.5C 2520.72,484.389 2522.72,495.056 2525,505.5C 2525.67,506.167 2526.33,506.833 2527,507.5C 2529.2,524.651 2530.03,541.984 2529.5,559.5 Z"/></g>
<g><path style="opacity:0.997" fill="#667dfe" d="M 2507.5,454.5 C 2509.26,461.767 2511.59,468.767 2514.5,475.5C 2517.73,483.089 2519.73,491.089 2520.5,499.5C 2520.41,502.152 2521.08,504.485 2522.5,506.5C 2522.5,506.833 2522.5,507.167 2522.5,507.5C 2523.53,518.716 2525.2,529.716 2527.5,540.5C 2527.5,540.833 2527.5,541.167 2527.5,541.5C 2528.83,951.839 2528.83,1362.17 2527.5,1772.5C 2527.5,1775.83 2527.5,1779.17 2527.5,1782.5C 2526.15,1795.27 2524.15,1807.94 2521.5,1820.5C 2519.5,1824.13 2518.5,1828.13 2518.5,1832.5C 2490.47,1935.02 2430.14,2012.18 2337.5,2064C 2285,2092 2229,2106.83 2169.5,2108.5C 1819.83,2108.33 1470.17,2108.5 1120.5,2109C 976.5,2229.33 832.5,2349.67 688.5,2470C 647.389,2502.12 602.722,2508.12 554.5,2488C 516.441,2466.39 494.441,2433.89 488.5,2390.5C 488.5,2296.5 488.5,2202.5 488.5,2108.5C 453.833,2108.5 419.167,2108.5 384.5,2108.5C 296.385,2104.25 219.385,2073.25 153.5,2015.5C 107.41,1972.74 73.7429,1921.74 52.5,1862.5C 51.9431,1857.84 50.6098,1853.5 48.5,1849.5C 44.3681,1833.48 40.7014,1817.48 37.5,1801.5C 37.051,1795.43 36.3844,1789.43 35.5,1783.5C 35.4766,1777.29 34.8099,1771.29 33.5,1765.5C 33.1689,1356.81 33.5022,948.146 34.5,539.5C 35.4824,535.684 36.1491,531.684 36.5,527.5C 46.024,461.031 71.524,401.698 113,349.5C 184.096,264.534 275.263,218.701 386.5,212C 982.833,211.333 1579.17,211.333 2175.5,212C 2236.5,215.113 2293.5,231.779 2346.5,262C 2423.1,307.073 2476.77,371.24 2507.5,454.5 Z"/></g>
<g><path style="opacity:1" fill="#fefefe" d="M 2389.5,504.5 C 2390.06,509.165 2391.39,513.498 2393.5,517.5C 2394.77,519.905 2395.43,522.572 2395.5,525.5C 2395.96,533.768 2397.29,541.768 2399.5,549.5C 2399.5,549.833 2399.5,550.167 2399.5,550.5C 2400.83,955.838 2400.83,1361.17 2399.5,1766.5C 2389.84,1847.01 2350.17,1907.84 2280.5,1949C 2248.05,1966.78 2213.38,1977.11 2176.5,1980C 1809.17,1980.33 1441.83,1980.67 1074.5,1981C 923.335,2106 772.335,2231.17 621.5,2356.5C 620.833,2231.17 620.167,2105.83 619.5,1980.5C 619.167,1980.5 618.833,1980.5 618.5,1980.5C 541.166,1980.67 463.833,1980.5 386.5,1980C 304.129,1972.59 240.629,1934.42 196,1865.5C 176.168,1831.84 164.834,1795.51 162,1756.5C 161.333,1357.83 161.333,959.167 162,560.5C 170.391,478.52 209.558,416.02 279.5,373C 313.25,353.528 349.584,342.528 388.5,340C 983.167,339.333 1577.83,339.333 2172.5,340C 2251.1,346.036 2313.6,380.536 2360,443.5C 2373.04,462.246 2382.87,482.579 2389.5,504.5 Z"/></g>
<g><path style="opacity:0.58" fill="#96a4fe" d="M 2507.5,454.5 C 2510.81,461.085 2513.14,468.085 2514.5,475.5C 2511.59,468.767 2509.26,461.767 2507.5,454.5 Z"/></g>
<g><path style="opacity:0.522" fill="#9daaff" d="M 2520.5,499.5 C 2521.92,501.515 2522.59,503.848 2522.5,506.5C 2521.08,504.485 2520.41,502.152 2520.5,499.5 Z"/></g>
<g><path style="opacity:1" fill="#ced3fe" d="M 2389.5,504.5 C 2391.61,508.502 2392.94,512.835 2393.5,517.5C 2391.39,513.498 2390.06,509.165 2389.5,504.5 Z"/></g>
<g><path style="opacity:0.525" fill="#94a2fe" d="M 2522.5,507.5 C 2525.12,518.226 2526.79,529.226 2527.5,540.5C 2525.2,529.716 2523.53,518.716 2522.5,507.5 Z"/></g>
<g><path style="opacity:0.259" fill="#c2c9ff" d="M 36.5,527.5 C 36.1491,531.684 35.4824,535.684 34.5,539.5C 34.335,536.15 34.5017,532.817 35,529.5C 35.2784,528.584 35.7784,527.918 36.5,527.5 Z"/></g>
<g><path style="opacity:1" fill="#cbd1ff" d="M 2395.5,525.5 C 2397.89,533.199 2399.23,541.199 2399.5,549.5C 2397.29,541.768 2395.96,533.768 2395.5,525.5 Z"/></g>
<g><path style="opacity:0.162" fill="#fefeff" d="M 2529.5,560.5 C 2530.5,560.5 2531.5,560.5 2532.5,560.5C 2533.16,797.824 2533.82,1035.16 2534.5,1272.5C 2536.02,1273.53 2536.69,1275.03 2536.5,1277C 2536.69,1278.97 2536.02,1280.47 2534.5,1281.5C 2533.82,1443.17 2533.15,1604.84 2532.5,1766.5C 2531.5,1766.5 2530.5,1766.5 2529.5,1766.5C 2530.83,1364.5 2530.83,962.498 2529.5,560.5 Z"/></g>
<g><path style="opacity:1" fill="#d3dafe" d="M 2399.5,550.5 C 2400.32,553.641 2400.82,556.975 2401,560.5C 2401.67,961.167 2401.67,1361.83 2401,1762.5C 2400.79,1764.06 2400.29,1765.39 2399.5,1766.5C 2400.83,1361.17 2400.83,955.838 2399.5,550.5 Z"/></g>
<g><path style="opacity:0.747" fill="#8e9dff" d="M 2527.5,541.5 C 2528.17,547.5 2528.83,553.5 2529.5,559.5C 2529.5,559.833 2529.5,560.167 2529.5,560.5C 2530.83,962.498 2530.83,1364.5 2529.5,1766.5C 2528.83,1768.5 2528.17,1770.5 2527.5,1772.5C 2528.83,1362.17 2528.83,951.839 2527.5,541.5 Z"/></g>
<g><path style="opacity:1" fill="#000000" d="M 402.5,908.5 C 438.833,908.5 475.167,908.5 511.5,908.5C 511.167,1039.67 511.5,1170.67 512.5,1301.5C 576.331,1302.5 640.331,1302.83 704.5,1302.5C 704.5,1333.17 704.5,1363.83 704.5,1394.5C 603.833,1394.5 503.167,1394.5 402.5,1394.5C 402.5,1232.5 402.5,1070.5 402.5,908.5 Z"/></g>
<g><path style="opacity:1" fill="#464646" d="M 402.5,908.5 C 438.996,907.502 475.663,907.168 512.5,907.5C 512.5,1038.83 512.5,1170.17 512.5,1301.5C 511.5,1170.67 511.167,1039.67 511.5,908.5C 475.167,908.5 438.833,908.5 402.5,908.5 Z"/></g>
<g><path style="opacity:1" fill="#d5d5d5" d="M 512.5,907.5 C 513.5,1038.33 513.833,1169.33 513.5,1300.5C 577.509,1299.84 641.175,1300.5 704.5,1302.5C 640.331,1302.83 576.331,1302.5 512.5,1301.5C 512.5,1170.17 512.5,1038.83 512.5,907.5 Z"/></g>
<g><path style="opacity:1" fill="#000000" d="M 789.5,908.5 C 825.833,908.5 862.167,908.5 898.5,908.5C 898.5,1070.5 898.5,1232.5 898.5,1394.5C 862.167,1394.5 825.833,1394.5 789.5,1394.5C 789.5,1232.5 789.5,1070.5 789.5,908.5 Z"/></g>
<g><path style="opacity:1" fill="#8a8a8a" d="M 789.5,908.5 C 789.5,908.167 789.5,907.833 789.5,907.5C 826.167,907.5 862.833,907.5 899.5,907.5C 899.5,1069.83 899.5,1232.17 899.5,1394.5C 899.167,1394.5 898.833,1394.5 898.5,1394.5C 898.5,1232.5 898.5,1070.5 898.5,908.5C 862.167,908.5 825.833,908.5 789.5,908.5 Z"/></g>
<g><path style="opacity:1" fill="#5f5f5f" d="M 1123.5,907.5 C 1123.5,907.833 1123.5,908.167 1123.5,908.5C 1087.17,908.5 1050.83,908.5 1014.5,908.5C 1014.5,1070.17 1014.5,1231.83 1014.5,1393.5C 1014.5,1393.83 1014.5,1394.17 1014.5,1394.5C 1013.5,1232.33 1013.17,1070 1013.5,907.5C 1050.17,907.5 1086.83,907.5 1123.5,907.5 Z"/></g>
<g><path style="opacity:1" fill="#000000" d="M 1123.5,908.5 C 1123.5,1039.5 1123.5,1170.5 1123.5,1301.5C 1187.33,1302.5 1251.33,1302.83 1315.5,1302.5C 1315.5,1332.83 1315.5,1363.17 1315.5,1393.5C 1215.17,1393.5 1114.83,1393.5 1014.5,1393.5C 1014.5,1231.83 1014.5,1070.17 1014.5,908.5C 1050.83,908.5 1087.17,908.5 1123.5,908.5 Z"/></g>
<g><path style="opacity:1" fill="#e4e4e4" d="M 1123.5,907.5 C 1124.5,1038.33 1124.83,1169.33 1124.5,1300.5C 1188.67,1300.17 1252.67,1300.5 1316.5,1301.5C 1252.17,1301.5 1187.83,1301.5 1123.5,1301.5C 1123.5,1170.5 1123.5,1039.5 1123.5,908.5C 1123.5,908.167 1123.5,907.833 1123.5,907.5 Z"/></g>
<g><path style="opacity:1" fill="#010101" d="M 1769.5,1391.5 C 1731.51,1393.49 1693.18,1394.16 1654.5,1393.5C 1644.74,1355.28 1634.74,1317.11 1624.5,1279C 1574.83,1278.5 1525.17,1278.33 1475.5,1278.5C 1465.68,1316.77 1456.01,1355.11 1446.5,1393.5C 1409.15,1394.16 1372.15,1393.49 1335.5,1391.5C 1385.35,1230.43 1435.52,1069.43 1486,908.5C 1508.1,907.836 1530.26,907.503 1552.5,907.5C 1574.74,907.503 1596.9,907.836 1619,908.5C 1669.48,1069.43 1719.64,1230.43 1769.5,1391.5 Z"/></g>
<g><path style="opacity:1" fill="#4b4b4b" d="M 2009.5,908.5 C 1947.83,908.5 1886.17,908.5 1824.5,908.5C 1824.5,1070.17 1824.5,1231.83 1824.5,1393.5C 1892.17,1393.5 1959.83,1393.5 2027.5,1393.5C 1959.67,1394.5 1891.67,1394.83 1823.5,1394.5C 1823.5,1232.17 1823.5,1069.83 1823.5,907.5C 1885.67,907.168 1947.67,907.501 2009.5,908.5 Z"/></g>
<g><path style="opacity:1" fill="#000000" d="M 2009.5,908.5 C 2011.5,908.5 2013.5,908.5 2015.5,908.5C 2022.99,909.513 2030.66,910.18 2038.5,910.5C 2068.8,912.993 2097.14,921.826 2123.5,937C 2158.31,962.151 2173.48,996.318 2169,1039.5C 2166.72,1076.59 2150.55,1105.75 2120.5,1127C 2115.55,1129.48 2110.55,1131.64 2105.5,1133.5C 2105.24,1134.98 2105.57,1136.31 2106.5,1137.5C 2109.4,1138.64 2112.4,1139.31 2115.5,1139.5C 2118.94,1141.2 2122.61,1142.54 2126.5,1143.5C 2166.67,1159.53 2188.84,1189.19 2193,1232.5C 2197.15,1301.26 2167.98,1349.26 2105.5,1376.5C 2103.03,1376.75 2101.03,1377.75 2099.5,1379.5C 2089.95,1382.57 2080.28,1385.24 2070.5,1387.5C 2066.58,1387.43 2062.91,1388.1 2059.5,1389.5C 2048.96,1391.49 2038.29,1392.82 2027.5,1393.5C 1959.83,1393.5 1892.17,1393.5 1824.5,1393.5C 1824.5,1231.83 1824.5,1070.17 1824.5,908.5C 1886.17,908.5 1947.83,908.5 2009.5,908.5 Z"/></g>
<g><path style="opacity:1" fill="#838383" d="M 2015.5,908.5 C 2023.4,908.136 2031.07,908.803 2038.5,910.5C 2030.66,910.18 2022.99,909.513 2015.5,908.5 Z"/></g>
<g><path style="opacity:1" fill="#fbfbfb" d="M 1547.5,991.5 C 1549.45,991.227 1550.95,991.893 1552,993.5C 1568.51,1060.21 1585.01,1126.87 1601.5,1193.5C 1567.17,1193.5 1532.83,1193.5 1498.5,1193.5C 1507.02,1159.44 1515.85,1125.44 1525,1091.5C 1532.82,1058.21 1540.32,1024.87 1547.5,991.5 Z"/></g>
<g><path style="opacity:1" fill="#fdfdfd" d="M 2015.5,1099.5 C 1988.21,1101.35 1960.88,1102.02 1933.5,1101.5C 1933.5,1065.17 1933.5,1028.83 1933.5,992.5C 1960.56,991.872 1987.56,992.705 2014.5,995C 2050.35,999.537 2065.85,1019.7 2061,1055.5C 2056.18,1080.82 2041.02,1095.48 2015.5,1099.5 Z"/></g>
<g><path style="opacity:1" fill="#c0c0c0" d="M 2015.5,1099.5 C 2012.01,1100.53 2008.35,1101.37 2004.5,1102C 1980.66,1102.83 1957,1102.66 1933.5,1101.5C 1960.88,1102.02 1988.21,1101.35 2015.5,1099.5 Z"/></g>
<g><path style="opacity:1" fill="#a5a5a5" d="M 2115.5,1139.5 C 2119.71,1139.68 2123.37,1141.01 2126.5,1143.5C 2122.61,1142.54 2118.94,1141.2 2115.5,1139.5 Z"/></g>
<g><path style="opacity:1" fill="#fefefe" d="M 2017.5,1184.5 C 2021.29,1185.62 2025.29,1186.28 2029.5,1186.5C 2029.83,1186.5 2030.17,1186.5 2030.5,1186.5C 2033.63,1187.58 2036.96,1188.25 2040.5,1188.5C 2055,1191.84 2067.17,1199.17 2077,1210.5C 2085.02,1224.15 2087.69,1238.82 2085,1254.5C 2081.95,1276.79 2070.12,1292.29 2049.5,1301C 2037.16,1305.2 2024.5,1307.87 2011.5,1309C 1985.5,1309.5 1959.5,1309.67 1933.5,1309.5C 1933.5,1267.83 1933.5,1226.17 1933.5,1184.5C 1961.5,1184.5 1989.5,1184.5 2017.5,1184.5 Z"/></g>
<g><path style="opacity:1" fill="#505050" d="M 2017.5,1184.5 C 2021.82,1184.08 2025.82,1184.75 2029.5,1186.5C 2025.29,1186.28 2021.29,1185.62 2017.5,1184.5 Z"/></g>
<g><path style="opacity:1" fill="#4a4a4a" d="M 2030.5,1186.5 C 2033.19,1186.34 2035.85,1186.5 2038.5,1187C 2039.42,1187.28 2040.08,1187.78 2040.5,1188.5C 2036.96,1188.25 2033.63,1187.58 2030.5,1186.5 Z"/></g>
<g><path style="opacity:1" fill="#9f9f9f" d="M 2105.5,1376.5 C 2103.97,1378.25 2101.97,1379.25 2099.5,1379.5C 2101.03,1377.75 2103.03,1376.75 2105.5,1376.5 Z"/></g>
<g><path style="opacity:1" fill="#555555" d="M 2070.5,1387.5 C 2067.09,1388.9 2063.42,1389.57 2059.5,1389.5C 2062.91,1388.1 2066.58,1387.43 2070.5,1387.5 Z"/></g>
<g><path style="opacity:1" fill="#515151" d="M 1123.5,1301.5 C 1187.83,1301.5 1252.17,1301.5 1316.5,1301.5C 1316.5,1332.5 1316.5,1363.5 1316.5,1394.5C 1215.83,1394.5 1115.17,1394.5 1014.5,1394.5C 1014.5,1394.17 1014.5,1393.83 1014.5,1393.5C 1114.83,1393.5 1215.17,1393.5 1315.5,1393.5C 1315.5,1363.17 1315.5,1332.83 1315.5,1302.5C 1251.33,1302.83 1187.33,1302.5 1123.5,1301.5 Z"/></g>
<g><path style="opacity:1" fill="#3e3e3e" d="M 1335.5,1391.5 C 1372.15,1393.49 1409.15,1394.16 1446.5,1393.5C 1446.5,1393.83 1446.5,1394.17 1446.5,1394.5C 1409,1394.83 1371.66,1394.5 1334.5,1393.5C 1334.33,1392.51 1334.66,1391.84 1335.5,1391.5 Z"/></g>
<g><path style="opacity:1" fill="#3f3f3f" d="M 1769.5,1391.5 C 1770.4,1392.21 1770.74,1393.21 1770.5,1394.5C 1731.66,1394.83 1693,1394.5 1654.5,1393.5C 1693.18,1394.16 1731.51,1393.49 1769.5,1391.5 Z"/></g>
<g><path style="opacity:1" fill="#c3c3c3" d="M 789.5,907.5 C 789.5,907.833 789.5,908.167 789.5,908.5C 789.5,1070.5 789.5,1232.5 789.5,1394.5C 825.833,1394.5 862.167,1394.5 898.5,1394.5C 898.833,1394.5 899.167,1394.5 899.5,1394.5C 862.67,1395.5 825.67,1395.83 788.5,1395.5C 788.167,1232.67 788.5,1070 789.5,907.5 Z"/></g>
<g><path style="opacity:1" fill="#d4d4d4" d="M 1334.5,1393.5 C 1371.66,1394.5 1409,1394.83 1446.5,1394.5C 1409,1395.83 1371.33,1395.83 1333.5,1394.5C 1333.62,1393.89 1333.96,1393.56 1334.5,1393.5 Z"/></g>
<g><path style="opacity:0.457" fill="#a6b2fe" d="M 2529.5,1766.5 C 2529.5,1768.83 2529.5,1771.17 2529.5,1773.5C 2528.83,1776.5 2528.17,1779.5 2527.5,1782.5C 2527.5,1779.17 2527.5,1775.83 2527.5,1772.5C 2528.17,1770.5 2528.83,1768.5 2529.5,1766.5 Z"/></g>
<g><path style="opacity:0.1" fill="#fcfdff" d="M 2529.5,1773.5 C 2529.64,1787.23 2528.8,1800.89 2527,1814.5C 2526.33,1815.17 2525.67,1815.83 2525,1816.5C 2524.5,1820.82 2524.33,1825.15 2524.5,1829.5C 2523.5,1829.5 2522.5,1829.5 2521.5,1829.5C 2521.72,1836 2520.88,1842.33 2519,1848.5C 2516.01,1851.08 2514.85,1854.41 2515.5,1858.5C 2514.5,1858.5 2513.5,1858.5 2512.5,1858.5C 2511.98,1864.19 2511.31,1869.85 2510.5,1875.5C 2509.5,1875.5 2508.5,1875.5 2507.5,1875.5C 2507.66,1878.19 2507.5,1880.85 2507,1883.5C 2505.67,1884.17 2504.67,1885.17 2504,1886.5C 2502.64,1891.85 2500.8,1896.85 2498.5,1901.5C 2497.5,1901.5 2496.5,1901.5 2495.5,1901.5C 2494.2,1907.39 2492.53,1913.06 2490.5,1918.5C 2489.17,1918.5 2487.83,1918.5 2486.5,1918.5C 2487.05,1922.39 2485.72,1925.39 2482.5,1927.5C 2481.55,1929.05 2481.21,1930.71 2481.5,1932.5C 2480.5,1932.5 2479.5,1932.5 2478.5,1932.5C 2478.01,1937.98 2476.01,1942.81 2472.5,1947C 2471.55,1947.48 2470.55,1947.65 2469.5,1947.5C 2469.58,1951.26 2468.08,1954.26 2465,1956.5C 2463.53,1960.49 2461.03,1963.82 2457.5,1966.5C 2456.34,1970.83 2453.84,1974.16 2450,1976.5C 2448.56,1977.9 2447.73,1979.57 2447.5,1981.5C 2445.09,1982.69 2442.76,1984.19 2440.5,1986C 2440.21,1989.09 2438.54,1990.59 2435.5,1990.5C 2435.5,1991.5 2435.5,1992.5 2435.5,1993.5C 2434.5,1993.5 2433.5,1993.5 2432.5,1993.5C 2432.25,1999.34 2429.25,2002.68 2423.5,2003.5C 2423.06,2008.36 2420.4,2011.03 2415.5,2011.5C 2414.15,2012.52 2413.48,2013.86 2413.5,2015.5C 2408.13,2018.03 2403.8,2021.86 2400.5,2027C 2396.74,2028.88 2393.07,2030.71 2389.5,2032.5C 2389.7,2034.39 2389.04,2035.89 2387.5,2037C 2382.83,2038.77 2378.83,2041.6 2375.5,2045.5C 2373.95,2046.45 2372.29,2046.79 2370.5,2046.5C 2370.5,2047.5 2370.5,2048.5 2370.5,2049.5C 2366.27,2052.42 2361.6,2054.75 2356.5,2056.5C 2354.83,2058 2353.17,2059.5 2351.5,2061C 2344.97,2063.27 2338.97,2066.6 2333.5,2071C 2328.97,2074.05 2323.97,2075.72 2318.5,2076C 2313.36,2081.28 2307.03,2084.28 2299.5,2085C 2292.32,2089.64 2284.32,2092.14 2275.5,2092.5C 2275.72,2093.68 2275.39,2094.68 2274.5,2095.5C 2271.89,2096.23 2269.22,2096.73 2266.5,2097C 2265.83,2097.67 2265.17,2098.33 2264.5,2099C 2257.93,2100.35 2251.27,2101.52 2244.5,2102.5C 2244.29,2103.09 2243.96,2103.59 2243.5,2104C 2239.17,2104.33 2234.83,2104.67 2230.5,2105C 2229.83,2105.67 2229.17,2106.33 2228.5,2107C 2217.51,2108.28 2206.51,2109.44 2195.5,2110.5C 2195.02,2111.48 2194.36,2112.31 2193.5,2113C 1889.5,2113.17 1585.5,2113.67 1281.5,2114.5C 1279.36,2117.02 1277.36,2117.02 1275.5,2114.5C 1233.17,2113.67 1190.84,2113.17 1148.5,2113C 1146.57,2112.58 1145.57,2111.41 1145.5,2109.5C 1487,2109.83 1828.33,2109.5 2169.5,2108.5C 2229,2106.83 2285,2092 2337.5,2064C 2430.14,2012.18 2490.47,1935.02 2518.5,1832.5C 2520.1,1828.76 2521.1,1824.76 2521.5,1820.5C 2524.15,1807.94 2526.15,1795.27 2527.5,1782.5C 2528.17,1779.5 2528.83,1776.5 2529.5,1773.5 Z"/></g>
<g><path style="opacity:0.255" fill="#c2caff" d="M 33.5,1765.5 C 34.8099,1771.29 35.4766,1777.29 35.5,1783.5C 34.0543,1777.73 33.3877,1771.73 33.5,1765.5 Z"/></g>
<g><path style="opacity:0.463" fill="#a1adff" d="M 2521.5,1820.5 C 2521.1,1824.76 2520.1,1828.76 2518.5,1832.5C 2518.5,1828.13 2519.5,1824.13 2521.5,1820.5 Z"/></g>
<g><path style="opacity:0.165" fill="#c9d0ff" d="M 48.5,1849.5 C 50.6098,1853.5 51.9431,1857.84 52.5,1862.5C 50.3902,1858.5 49.0569,1854.16 48.5,1849.5 Z"/></g>
<g><path style="opacity:0.059" fill="#f4f5ff" d="M 37.5,1801.5 C 40.7014,1817.48 44.3681,1833.48 48.5,1849.5C 49.0569,1854.16 50.3902,1858.5 52.5,1862.5C 73.7429,1921.74 107.41,1972.74 153.5,2015.5C 153.167,2015.5 152.833,2015.5 152.5,2015.5C 151.167,2015.5 149.833,2015.5 148.5,2015.5C 148.5,2014.5 148.5,2013.5 148.5,2012.5C 142.802,2011.81 138.802,2008.81 136.5,2003.5C 130.963,2000.76 127.63,1996.43 126.5,1990.5C 125.5,1990.5 124.5,1990.5 123.5,1990.5C 123.5,1989.17 123.5,1987.83 123.5,1986.5C 120.255,1986.71 118.255,1985.21 117.5,1982C 116.552,1981.52 115.552,1981.35 114.5,1981.5C 114.5,1980.5 114.5,1979.5 114.5,1978.5C 113.325,1978.72 112.325,1978.39 111.5,1977.5C 110.459,1975.41 108.959,1973.75 107,1972.5C 105.254,1967.73 102.254,1963.73 98,1960.5C 96.9442,1956.94 94.9442,1953.94 92,1951.5C 89.4945,1946.45 86.4945,1941.78 83,1937.5C 82.8217,1933.88 81.155,1931.21 78,1929.5C 77.5045,1927.53 77.3379,1925.53 77.5,1923.5C 76.325,1923.72 75.325,1923.39 74.5,1922.5C 73.0668,1919.67 72.4001,1916.67 72.5,1913.5C 71.1779,1913.67 70.0113,1913.34 69,1912.5C 68.5045,1910.53 68.3379,1908.53 68.5,1906.5C 67.5,1906.5 66.5,1906.5 65.5,1906.5C 63.684,1899.98 61.684,1893.65 59.5,1887.5C 58.5224,1887.02 57.6891,1886.36 57,1885.5C 55.8466,1881.21 55.0133,1876.88 54.5,1872.5C 53.5,1872.5 52.5,1872.5 51.5,1872.5C 51.5,1869.5 51.5,1866.5 51.5,1863.5C 50.5,1863.5 49.5,1863.5 48.5,1863.5C 47.6902,1857.85 47.0235,1852.19 46.5,1846.5C 45.5,1846.5 44.5,1846.5 43.5,1846.5C 43.665,1843.15 43.4983,1839.82 43,1836.5C 42,1835.5 41,1834.5 40,1833.5C 39.8404,1829.71 39.1737,1826.05 38,1822.5C 37.501,1818.18 37.3343,1813.85 37.5,1809.5C 37.5,1806.83 37.5,1804.17 37.5,1801.5 Z"/></g>
<g><path style="opacity:1" fill="#889afe" d="M 618.5,1980.5 C 618.833,1980.5 619.167,1980.5 619.5,1980.5C 619.167,2106.33 619.5,2232 620.5,2357.5C 620.44,2358.04 620.107,2358.38 619.5,2358.5C 618.5,2232.5 618.167,2106.5 618.5,1980.5 Z"/></g>
<g><path style="opacity:1" fill="#e8ecfe" d="M 619.5,1980.5 C 620.167,2105.83 620.833,2231.17 621.5,2356.5C 621.5,2357.17 621.167,2357.5 620.5,2357.5C 619.5,2232 619.167,2106.33 619.5,1980.5 Z"/></g>
<g><path style="opacity:0.094" fill="#f0f2ff" d="M 152.5,2015.5 C 152.833,2015.5 153.167,2015.5 153.5,2015.5C 219.385,2073.25 296.385,2104.25 384.5,2108.5C 418.663,2109.5 452.996,2109.83 487.5,2109.5C 487.167,2203.33 487.501,2297 488.5,2390.5C 494.441,2433.89 516.441,2466.39 554.5,2488C 602.722,2508.12 647.389,2502.12 688.5,2470C 832.5,2349.67 976.5,2229.33 1120.5,2109C 1470.17,2108.5 1819.83,2108.33 2169.5,2108.5C 1828.33,2109.5 1487,2109.83 1145.5,2109.5C 1140.49,2109.33 1135.49,2109.5 1130.5,2110C 1128.29,2112.89 1125.29,2114.22 1121.5,2114C 1117.58,2116.77 1113.58,2119.27 1109.5,2121.5C 1109.17,2124.5 1107.5,2126.17 1104.5,2126.5C 1104.72,2127.68 1104.39,2128.68 1103.5,2129.5C 1100.03,2131.81 1096.37,2133.81 1092.5,2135.5C 1091.11,2140.54 1087.77,2143.2 1082.5,2143.5C 1082.83,2146.5 1081.5,2147.83 1078.5,2147.5C 1078.5,2148.5 1078.5,2149.5 1078.5,2150.5C 1074.78,2152.06 1071.78,2154.56 1069.5,2158C 1066.98,2159.34 1064.31,2160.17 1061.5,2160.5C 1061.5,2161.83 1061.5,2163.17 1061.5,2164.5C 1060.5,2164.5 1059.5,2164.5 1058.5,2164.5C 1058.5,2165.5 1058.5,2166.5 1058.5,2167.5C 1055.53,2167.63 1053.53,2169.13 1052.5,2172C 1050.87,2172.49 1049.2,2172.66 1047.5,2172.5C 1047.65,2173.55 1047.48,2174.55 1047,2175.5C 1045.33,2176.5 1043.67,2177.5 1042,2178.5C 1041.52,2179.45 1041.35,2180.45 1041.5,2181.5C 1040.45,2181.35 1039.45,2181.52 1038.5,2182C 1037,2184.67 1035,2186.84 1032.5,2188.5C 1030.95,2189.45 1029.29,2189.79 1027.5,2189.5C 1027.67,2190.82 1027.34,2191.99 1026.5,2193C 1023.18,2194.82 1020.51,2197.32 1018.5,2200.5C 1011.74,2204.02 1006.07,2208.69 1001.5,2214.5C 999.604,2215.47 997.604,2215.8 995.5,2215.5C 994.148,2220.19 991.148,2223.19 986.5,2224.5C 984.823,2228.5 981.823,2231.17 977.5,2232.5C 976.614,2233.32 976.281,2234.32 976.5,2235.5C 972.312,2237.13 968.978,2239.96 966.5,2244C 964.744,2244.2 963.078,2244.7 961.5,2245.5C 956.543,2250.66 951.543,2255.83 946.5,2261C 942.696,2262.66 939.03,2264.49 935.5,2266.5C 935.703,2268.39 935.037,2269.89 933.5,2271C 931.774,2272.53 929.774,2273.53 927.5,2274C 923.391,2278.53 919.057,2282.7 914.5,2286.5C 912.955,2287.45 911.288,2287.79 909.5,2287.5C 907.833,2290.17 906.167,2292.83 904.5,2295.5C 903.5,2295.5 902.5,2295.5 901.5,2295.5C 901.719,2296.68 901.386,2297.68 900.5,2298.5C 897.745,2299.51 895.745,2301.34 894.5,2304C 892.866,2304.49 891.199,2304.66 889.5,2304.5C 889.167,2307.5 887.5,2309.17 884.5,2309.5C 884.5,2310.5 884.5,2311.5 884.5,2312.5C 883.167,2312.5 881.833,2312.5 880.5,2312.5C 880.649,2313.55 880.483,2314.55 880,2315.5C 877.63,2317.37 875.13,2319.04 872.5,2320.5C 871.147,2321.52 870.48,2322.86 870.5,2324.5C 866.93,2326.97 862.93,2328.64 858.5,2329.5C 858.5,2330.83 858.5,2332.17 858.5,2333.5C 857.325,2333.28 856.325,2333.61 855.5,2334.5C 852.047,2338.43 848.38,2342.1 844.5,2345.5C 842.604,2346.47 840.604,2346.8 838.5,2346.5C 838.649,2347.55 838.483,2348.55 838,2349.5C 835.532,2352.15 832.699,2354.15 829.5,2355.5C 829.719,2356.68 829.386,2357.68 828.5,2358.5C 823.079,2361.42 818.413,2365.25 814.5,2370C 812.52,2371.83 810.187,2372.66 807.5,2372.5C 807.5,2373.5 807.5,2374.5 807.5,2375.5C 806.325,2375.28 805.325,2375.61 804.5,2376.5C 803.5,2378.83 801.833,2380.5 799.5,2381.5C 798.614,2382.32 798.281,2383.32 798.5,2384.5C 795.144,2386.61 791.477,2388.27 787.5,2389.5C 787.719,2390.68 787.386,2391.68 786.5,2392.5C 784.298,2394.63 781.965,2396.63 779.5,2398.5C 778.614,2399.32 778.281,2400.32 778.5,2401.5C 776.833,2401.5 775.167,2401.5 773.5,2401.5C 773.5,2402.5 773.5,2403.5 773.5,2404.5C 771.167,2405.17 768.833,2405.83 766.5,2406.5C 766.067,2409.29 764.734,2411.62 762.5,2413.5C 760.611,2414.6 758.945,2415.94 757.5,2417.5C 755.955,2418.45 754.288,2418.79 752.5,2418.5C 752.684,2421.32 751.351,2422.99 748.5,2423.5C 746.069,2429.21 741.736,2432.21 735.5,2432.5C 735.5,2433.5 735.5,2434.5 735.5,2435.5C 734.5,2435.5 733.5,2435.5 732.5,2435.5C 732.649,2436.55 732.483,2437.55 732,2438.5C 729.597,2439.78 727.763,2441.61 726.5,2444C 725.552,2444.48 724.552,2444.65 723.5,2444.5C 723.5,2445.5 723.5,2446.5 723.5,2447.5C 718.738,2448.41 715.071,2451.07 712.5,2455.5C 710.821,2456.78 708.987,2457.78 707,2458.5C 705.82,2462.85 702.987,2465.18 698.5,2465.5C 694.077,2471.54 688.411,2475.87 681.5,2478.5C 681.5,2479.5 681.5,2480.5 681.5,2481.5C 679.712,2481.21 678.045,2481.55 676.5,2482.5C 674.342,2485.64 671.342,2486.98 667.5,2486.5C 667.67,2487.82 667.337,2488.99 666.5,2490C 660.553,2492.87 654.219,2495.04 647.5,2496.5C 644.1,2498.16 640.767,2500 637.5,2502C 617.502,2503.96 597.502,2503.96 577.5,2502C 576.09,2501.63 575.09,2500.8 574.5,2499.5C 567.658,2497.14 560.658,2494.97 553.5,2493C 551.974,2491.11 549.974,2490.11 547.5,2490C 546.663,2488.99 546.33,2487.82 546.5,2486.5C 542.166,2485.32 538.166,2483.66 534.5,2481.5C 534.5,2480.5 534.5,2479.5 534.5,2478.5C 531.5,2478.17 529.833,2476.5 529.5,2473.5C 528.5,2473.5 527.5,2473.5 526.5,2473.5C 526.5,2472.17 526.5,2470.83 526.5,2469.5C 521.804,2469.23 517.971,2467.23 515,2463.5C 514.753,2459.77 512.919,2457.43 509.5,2456.5C 509.723,2453.89 508.556,2452.22 506,2451.5C 505.559,2448.06 503.892,2445.39 501,2443.5C 498.754,2437.08 495.754,2431.08 492,2425.5C 492.012,2422.35 491.012,2419.68 489,2417.5C 488.825,2413.79 488.325,2410.12 487.5,2406.5C 486.914,2406.29 486.414,2405.96 486,2405.5C 486.122,2313.48 485.288,2221.48 483.5,2129.5C 483.589,2125.97 484.256,2122.64 485.5,2119.5C 483.914,2117.83 483.247,2115.83 483.5,2113.5C 446.832,2113.67 410.165,2113.5 373.5,2113C 372.663,2111.99 372.33,2110.82 372.5,2109.5C 358.419,2109.92 344.419,2109.09 330.5,2107C 329.833,2106.33 329.167,2105.67 328.5,2105C 323.167,2104.67 317.833,2104.33 312.5,2104C 312.043,2103.59 311.709,2103.09 311.5,2102.5C 302.582,2100.73 293.915,2098.57 285.5,2096C 284.027,2095.29 283.36,2094.12 283.5,2092.5C 274.679,2092.14 266.679,2089.64 259.5,2085C 251.971,2084.28 245.638,2081.28 240.5,2076C 237.042,2075.4 233.709,2074.4 230.5,2073C 223.362,2068.89 216.029,2065.06 208.5,2061.5C 208.5,2060.5 208.5,2059.5 208.5,2058.5C 206.833,2058.5 205.167,2058.5 203.5,2058.5C 203.5,2057.5 203.5,2056.5 203.5,2055.5C 201.801,2055.66 200.134,2055.49 198.5,2055C 193.597,2051.22 188.597,2047.72 183.5,2044.5C 183.5,2043.5 183.5,2042.5 183.5,2041.5C 179.409,2040.3 175.576,2038.3 172,2035.5C 171.517,2034.55 171.351,2033.55 171.5,2032.5C 169.833,2032.5 168.167,2032.5 166.5,2032.5C 166.5,2031.5 166.5,2030.5 166.5,2029.5C 163.728,2029.4 161.728,2028.07 160.5,2025.5C 159.675,2024.61 158.675,2024.28 157.5,2024.5C 157.684,2021.68 156.351,2020.01 153.5,2019.5C 152.571,2018.31 152.238,2016.98 152.5,2015.5 Z"/></g>
<g><path style="opacity:0.469" fill="#d1d8ff" d="M 384.5,2108.5 C 419.167,2108.5 453.833,2108.5 488.5,2108.5C 488.5,2202.5 488.5,2296.5 488.5,2390.5C 487.501,2297 487.167,2203.33 487.5,2109.5C 452.996,2109.83 418.663,2109.5 384.5,2108.5 Z"/></g>
</svg>
